<?xml version="1.0" encoding="UTF-8"?>
<svg xmlns="http://www.w3.org/2000/svg" xmlns:xlink="http://www.w3.org/1999/xlink"><symbol viewBox="-1 -1 94.36 75.56" id="all"><title>34_all_teams_icon</title><path fill="#fff" opacity=".2" d="M20.94 31.47h-7.29l-4.97-4.74-5.05 4.74v-7.19l2.89-2.88h11.54l2.88 2.88v7.19zM15.97 51.28v3.39l-1.29 1.29H9.53l-1.29-1.29v-3.39M51.89 54.94v4.94l-1.88 1.88H42.5l-1.87-1.88v-4.94"/><path fill="none" stroke="#fff" stroke-miterlimit="10" stroke-width="1.5" d="M68.54 32.94h2.88v2.88h-2.88zM88.73 44.48l-2.89 2.88H74.3l-2.88-2.88v-20.2l2.88-2.88h11.54l2.89 2.88v20.2z"/><path fill="#fff" opacity=".2" d="M88.73 29.34H71.42v-5.06l2.88-2.88h11.54l2.89 2.88v5.06z"/><path fill="none" stroke="#fff" stroke-miterlimit="10" stroke-width="1.5" d="M88.73 32.94h2.88v2.88h-2.88z"/><path fill="#fff" opacity=".2" d="M57.12 15.02H35.39l-4.6 4.6v21.79h3.71V28.28l3.99.03 5.32-5.51v5.51l14.13-.03v13.13h3.78V19.62l-4.6-4.6z"/><path fill="none" stroke="#fff" stroke-miterlimit="10" stroke-width="1.5" d="M32.66 72.81V58.56l3.91-3.91h19.37l3.91 3.91v14.25H32.66zM.75 32.94h2.88v2.88H.75z"/><path fill="none" stroke="#fff" stroke-miterlimit="10" stroke-width="1.5" d="M20.94 44.48l-2.88 2.88H6.52l-2.89-2.88v-20.2l2.89-2.88h11.54l2.88 2.88v20.2zM1.24 65.32V54.28l2.89-2.88h15.69l2.89 2.88v11.04H1.24zM69.34 64.87V53.83l2.88-2.88h15.7l2.89 2.88v11.04H69.34zM20.94 32.94h2.88v2.88h-2.88zM7.84 21.38l10.69 10.19M5.03 23.08l3.58 3.58"/><path fill="#fff" opacity=".2" d="M83.16 59.57l-3.09 3.08-3.08-3.08 3.08-4.85 3.09 4.85zM83.16 51.04h-6.17l3.08 3.68 3.09-3.68z"/><path fill="none" stroke="#fff" stroke-miterlimit="10" stroke-width="1.5" d="M9.81 3.79h4.44l3.33 3.33v4.44l-3.33 3.33H9.81l-3.32-3.33V7.12l3.32-3.33z"/><path fill="none" stroke="#fff" stroke-miterlimit="10" stroke-width="1.5" d="M12.03 6.01v3.33l2.22 2.22M84.13 14.37l-1.01-3.02-6.03-6.03-1-1h-1.01l-1 1v1.01l2 2.01h.01l5.02 5.02 3.02 1.01zM39.72 3.48l4.18.02 1.41 1.41L49.47.75h4.16l-8.32 8.32-5.59-5.59zM11.97 56.32v9M57.94 41.41v4.86l-3.91 3.91H38.41l-3.91-3.91v-4.86M20.94 31.47h-7.29l-4.97-4.74-5.05 4.74v-7.19l2.89-2.88h11.54l2.88 2.88v7.19zM15.97 51.28v3.39l-1.29 1.29H9.53l-1.29-1.29v-3.39"/><path fill="none" stroke="#fff" stroke-miterlimit="10" stroke-width="1.5" d="M57.12 15.02H35.39l-4.6 4.6v21.79h3.71V28.28l3.99.03 5.32-5.51v5.51l14.13-.03v13.13h3.78V19.62l-4.6-4.6zM51.89 54.94v4.94l-1.88 1.88H42.5l-1.87-1.88v-4.94M88.73 29.34H71.42v-5.06l2.88-2.88h11.54l2.89 2.88v5.06zM83.16 59.57l-3.09 3.08-3.08-3.08 3.08-4.85 3.09 4.85zM83.16 51.04h-6.17l3.08 3.68 3.09-3.68z"/></symbol><symbol viewBox="-1 -1 94.36 75.56" id="all-blue"><title>2_all_teams_icon</title><path fill="#e8f1f9" d="M20.94 31.47h-7.29l-4.97-4.74-5.05 4.74v-7.19l2.89-2.88h11.54l2.88 2.88v7.19zM15.97 51.28v3.39l-1.29 1.29H9.53l-1.29-1.29v-3.39M51.89 54.94v4.94l-1.88 1.88H42.5l-1.87-1.88v-4.94"/><path fill="none" stroke="#2069db" stroke-miterlimit="10" stroke-width="1.5" d="M68.54 32.94h2.88v2.88h-2.88zM88.73 44.48l-2.89 2.88H74.3l-2.88-2.88v-20.2l2.88-2.88h11.54l2.89 2.88v20.2z"/><path fill="#e8f1f9" d="M88.73 29.34H71.42v-5.06l2.88-2.88h11.54l2.89 2.88v5.06z"/><path fill="none" stroke="#2069db" stroke-miterlimit="10" stroke-width="1.5" d="M88.73 32.94h2.88v2.88h-2.88z"/><path fill="#e8f1f9" d="M57.12 15.02H35.39l-4.6 4.6v21.79h3.71V28.28l3.99.03 5.32-5.51v5.51l14.13-.03v13.13h3.78V19.62l-4.6-4.6z"/><path fill="none" stroke="#2069db" stroke-miterlimit="10" stroke-width="1.5" d="M32.66 72.81V58.56l3.91-3.91h19.37l3.91 3.91v14.25H32.66zM.75 32.94h2.88v2.88H.75z"/><path fill="none" stroke="#2069db" stroke-miterlimit="10" stroke-width="1.5" d="M20.94 44.48l-2.88 2.88H6.52l-2.89-2.88v-20.2l2.89-2.88h11.54l2.88 2.88v20.2zM1.24 65.32V54.28l2.89-2.88h15.69l2.89 2.88v11.04H1.24zM69.34 64.87V53.83l2.88-2.88h15.7l2.89 2.88v11.04H69.34zM20.94 32.94h2.88v2.88h-2.88zM7.84 21.38l10.69 10.19M5.03 23.08l3.58 3.58"/><path fill="#e8f1f9" d="M83.16 59.57l-3.09 3.08-3.08-3.08 3.08-4.85 3.09 4.85zM83.16 51.04h-6.17l3.08 3.68 3.09-3.68z"/><path fill="none" stroke="#2069db" stroke-miterlimit="10" stroke-width="1.5" d="M9.81 3.79h4.44l3.33 3.33v4.44l-3.33 3.33H9.81l-3.32-3.33V7.12l3.32-3.33z"/><path fill="none" stroke="#2069db" stroke-miterlimit="10" stroke-width="1.5" d="M12.03 6.01v3.33l2.22 2.22M84.13 14.37l-1.01-3.02-6.03-6.03-1-1h-1.01l-1 1v1.01l2 2.01h.01l5.02 5.02 3.02 1.01zM39.72 3.48l4.18.02 1.41 1.41L49.47.75h4.16l-8.32 8.32-5.59-5.59zM11.97 56.32v9M57.94 41.41v4.86l-3.91 3.91H38.41l-3.91-3.91v-4.86M20.94 31.47h-7.29l-4.97-4.74-5.05 4.74v-7.19l2.89-2.88h11.54l2.88 2.88v7.19zM15.97 51.28v3.39l-1.29 1.29H9.53l-1.29-1.29v-3.39"/><path fill="none" stroke="#2069db" stroke-miterlimit="10" stroke-width="1.5" d="M57.12 15.02H35.39l-4.6 4.6v21.79h3.71V28.28l3.99.03 5.32-5.51v5.51l14.13-.03v13.13h3.78V19.62l-4.6-4.6zM51.89 54.94v4.94l-1.88 1.88H42.5l-1.87-1.88v-4.94M88.73 29.34H71.42v-5.06l2.88-2.88h11.54l2.89 2.88v5.06zM83.16 59.57l-3.09 3.08-3.08-3.08 3.08-4.85 3.09 4.85zM83.16 51.04h-6.17l3.08 3.68 3.09-3.68z"/></symbol><symbol viewBox="-1 -1 94.36 75.56" id="all-dark"><title>1_all_teams_icon</title><path fill="#dbdfe5" d="M20.94 31.47h-7.29l-4.97-4.74-5.05 4.74v-7.19l2.89-2.88h11.54l2.88 2.88v7.19zM15.97 51.28v3.39l-1.29 1.29H9.53l-1.29-1.29v-3.39M51.89 54.94v4.94l-1.88 1.88H42.5l-1.87-1.88v-4.94"/><path fill="none" stroke="#5a606c" stroke-miterlimit="10" stroke-width="1.5" d="M68.54 32.94h2.88v2.88h-2.88zM88.73 44.48l-2.89 2.88H74.3l-2.88-2.88v-20.2l2.88-2.88h11.54l2.89 2.88v20.2z"/><path fill="#dbdfe5" d="M88.73 29.34H71.42v-5.06l2.88-2.88h11.54l2.89 2.88v5.06z"/><path fill="none" stroke="#5a606c" stroke-miterlimit="10" stroke-width="1.5" d="M88.73 32.94h2.88v2.88h-2.88z"/><path fill="#dbdfe5" d="M57.12 15.02H35.39l-4.6 4.6v21.79h3.71V28.28l3.99.03 5.32-5.51v5.51l14.13-.03v13.13h3.78V19.62l-4.6-4.6z"/><path fill="none" stroke="#5a606c" stroke-miterlimit="10" stroke-width="1.5" d="M32.66 72.81V58.56l3.91-3.91h19.37l3.91 3.91v14.25H32.66zM.75 32.94h2.88v2.88H.75z"/><path fill="none" stroke="#5a606c" stroke-miterlimit="10" stroke-width="1.5" d="M20.94 44.48l-2.88 2.88H6.52l-2.89-2.88v-20.2l2.89-2.88h11.54l2.88 2.88v20.2zM1.24 65.32V54.28l2.89-2.88h15.69l2.89 2.88v11.04H1.24zM69.34 64.87V53.83l2.88-2.88h15.7l2.89 2.88v11.04H69.34zM20.94 32.94h2.88v2.88h-2.88zM7.84 21.38l10.69 10.19M5.03 23.08l3.58 3.58"/><path fill="#dbdfe5" d="M83.16 59.57l-3.09 3.08-3.08-3.08 3.08-4.85 3.09 4.85zM83.16 51.04h-6.17l3.08 3.68 3.09-3.68z"/><path fill="none" stroke="#5a606c" stroke-miterlimit="10" stroke-width="1.5" d="M9.81 3.79h4.44l3.33 3.33v4.44l-3.33 3.33H9.81l-3.32-3.33V7.12l3.32-3.33z"/><path fill="none" stroke="#5a606c" stroke-miterlimit="10" stroke-width="1.5" d="M12.03 6.01v3.33l2.22 2.22M84.13 14.37l-1.01-3.02-6.03-6.03-1-1h-1.01l-1 1v1.01l2 2.01h.01l5.02 5.02 3.02 1.01zM39.72 3.48l4.18.02 1.41 1.41L49.47.75h4.16l-8.32 8.32-5.59-5.59zM11.97 56.32v9M57.94 41.41v4.86l-3.91 3.91H38.41l-3.91-3.91v-4.86M20.94 31.47h-7.29l-4.97-4.74-5.05 4.74v-7.19l2.89-2.88h11.54l2.88 2.88v7.19zM15.97 51.28v3.39l-1.29 1.29H9.53l-1.29-1.29v-3.39"/><path fill="none" stroke="#5a606c" stroke-miterlimit="10" stroke-width="1.5" d="M57.12 15.02H35.39l-4.6 4.6v21.79h3.71V28.28l3.99.03 5.32-5.51v5.51l14.13-.03v13.13h3.78V19.62l-4.6-4.6zM51.89 54.94v4.94l-1.88 1.88H42.5l-1.87-1.88v-4.94M88.73 29.34H71.42v-5.06l2.88-2.88h11.54l2.89 2.88v5.06zM83.16 59.57l-3.09 3.08-3.08-3.08 3.08-4.85 3.09 4.85zM83.16 51.04h-6.17l3.08 3.68 3.09-3.68z"/></symbol><symbol viewBox="-1 -1 94.36 75.56" id="all-disabled"><title>44_all_teams_icon</title><path fill="#ccd5e1" d="M20.94 31.47h-7.29l-4.97-4.74-5.05 4.74v-7.19l2.89-2.88h11.54l2.88 2.88v7.19zM15.97 51.28v3.39l-1.29 1.29H9.53l-1.29-1.29v-3.39M51.89 54.94v4.94l-1.88 1.88H42.5l-1.87-1.88v-4.94"/><path fill="none" stroke="#8097b1" stroke-miterlimit="10" stroke-width="1.5" d="M68.54 32.94h2.88v2.88h-2.88zM88.73 44.48l-2.89 2.88H74.3l-2.88-2.88v-20.2l2.88-2.88h11.54l2.89 2.88v20.2z"/><path fill="#ccd5e1" d="M88.73 29.34H71.42v-5.06l2.88-2.88h11.54l2.89 2.88v5.06z"/><path fill="none" stroke="#8097b1" stroke-miterlimit="10" stroke-width="1.5" d="M88.73 32.94h2.88v2.88h-2.88z"/><path fill="#ccd5e1" d="M57.12 15.02H35.39l-4.6 4.6v21.79h3.71V28.28l3.99.03 5.32-5.51v5.51l14.13-.03v13.13h3.78V19.62l-4.6-4.6z"/><path fill="none" stroke="#8097b1" stroke-miterlimit="10" stroke-width="1.5" d="M32.66 72.81V58.56l3.91-3.91h19.37l3.91 3.91v14.25H32.66zM.75 32.94h2.88v2.88H.75z"/><path fill="none" stroke="#8097b1" stroke-miterlimit="10" stroke-width="1.5" d="M20.94 44.48l-2.88 2.88H6.52l-2.89-2.88v-20.2l2.89-2.88h11.54l2.88 2.88v20.2zM1.24 65.32V54.28l2.89-2.88h15.69l2.89 2.88v11.04H1.24zM69.34 64.87V53.83l2.88-2.88h15.7l2.89 2.88v11.04H69.34zM20.94 32.94h2.88v2.88h-2.88zM7.84 21.38l10.69 10.19M5.03 23.08l3.58 3.58"/><path fill="#ccd5e1" d="M83.16 59.57l-3.09 3.08-3.08-3.08 3.08-4.85 3.09 4.85zM83.16 51.04h-6.17l3.08 3.68 3.09-3.68z"/><path fill="none" stroke="#8097b1" stroke-miterlimit="10" stroke-width="1.5" d="M9.81 3.79h4.44l3.33 3.33v4.44l-3.33 3.33H9.81l-3.32-3.33V7.12l3.32-3.33z"/><path fill="none" stroke="#8097b1" stroke-miterlimit="10" stroke-width="1.5" d="M12.03 6.01v3.33l2.22 2.22M84.13 14.37l-1.01-3.02-6.03-6.03-1-1h-1.01l-1 1v1.01l2 2.01h.01l5.02 5.02 3.02 1.01zM39.72 3.48l4.18.02 1.41 1.41L49.47.75h4.16l-8.32 8.32-5.59-5.59zM11.97 56.32v9M57.94 41.41v4.86l-3.91 3.91H38.41l-3.91-3.91v-4.86M20.94 31.47h-7.29l-4.97-4.74-5.05 4.74v-7.19l2.89-2.88h11.54l2.88 2.88v7.19zM15.97 51.28v3.39l-1.29 1.29H9.53l-1.29-1.29v-3.39"/><path fill="none" stroke="#8097b1" stroke-miterlimit="10" stroke-width="1.5" d="M57.12 15.02H35.39l-4.6 4.6v21.79h3.71V28.28l3.99.03 5.32-5.51v5.51l14.13-.03v13.13h3.78V19.62l-4.6-4.6zM51.89 54.94v4.94l-1.88 1.88H42.5l-1.87-1.88v-4.94M88.73 29.34H71.42v-5.06l2.88-2.88h11.54l2.89 2.88v5.06zM83.16 59.57l-3.09 3.08-3.08-3.08 3.08-4.85 3.09 4.85zM83.16 51.04h-6.17l3.08 3.68 3.09-3.68z"/></symbol><symbol viewBox="-1 -1 49.71 40.08" id="all-mobile"><title>mobile_icon_all_teams</title><path fill="none" stroke="#5a606c" stroke-miterlimit="10" d="M10.77 16.02h-3.8l-2.59-2.47-2.63 2.47v-3.75l1.5-1.5h6.02l1.5 1.5v3.75zM8.18 26.35v1.77l-.67.67H4.82l-.67-.67v-1.77M26.91 28.26v2.57l-.98.98h-3.91l-.98-.98v-2.57"/><path fill="#5a606c" d="M35.59 16.79h1.5v2.49h-1.5z"/><path fill="none" stroke="#5a606c" stroke-miterlimit="10" d="M46.12 22.8l-1.5 1.51H38.6l-1.5-1.51V12.27l1.5-1.5h6.02l1.5 1.5V22.8z"/><path fill="none" stroke="#5a606c" stroke-miterlimit="10" d="M46.12 14.91H37.1v-2.64l1.5-1.5h6.02l1.5 1.5v2.64z"/><path fill="#5a606c" d="M46.12 16.79h1.5v2.49h-1.5z"/><path fill="none" stroke="#5a606c" stroke-miterlimit="10" d="M29.64 7.44H18.31l-2.4 2.4V21.2h1.93v-6.84l2.08.01 2.78-2.87v2.87l7.37-.01v6.84h1.97V9.84l-2.4-2.4zM16.89 37.58v-7.44l2.03-2.03h10.11l2.03 2.03v7.44H16.89z"/><path fill="#5a606c" d="M.24 16.79h1.5v2.49H.24z"/><path fill="none" stroke="#5a606c" stroke-miterlimit="10" d="M10.77 22.8l-1.5 1.51H3.25l-1.5-1.51V12.27l1.5-1.5h6.02l1.5 1.5V22.8zM.5 33.67v-5.75L2 26.41h8.19l1.5 1.51v5.75H.5zM36.01 33.44v-5.76l1.51-1.5h8.18l1.51 1.5v5.76h-11.2z"/><path fill="#5a606c" d="M10.77 16.79h1.5v2.49h-1.5z"/><path fill="none" stroke="#5a606c" stroke-miterlimit="10" d="M2.48 11.65l1.86 1.86"/><path fill="#5a606c" d="M43.22 30.67l-1.61 1.61L40 30.67l1.61-2.53 1.61 2.53zM43.22 26.23H40l1.61 1.91 1.61-1.91z"/><path fill="none" stroke="#5a606c" stroke-miterlimit="10" d="M4.97 1.59h2.32l1.73 1.73v2.32L7.29 7.37H4.97L3.24 5.64V3.32l1.73-1.73z"/><path fill="none" stroke="#5a606c" stroke-miterlimit="10" d="M6.13 2.75v1.73l1.16 1.16"/><path fill="#5a606c" d="M43.72 7.1l-.52-1.57-3.15-3.15-.52-.52h-.52l-.53.52v.53l1.05 1.05 2.62 2.62 1.57.52zM20.57 1.42l2.18.02.73.73L25.65 0h2.17l-4.34 4.34-2.91-2.92z"/><path fill="none" stroke="#5a606c" stroke-miterlimit="10" d="M6.1 28.98v4.69M30.07 21.2v2.54l-2.04 2.04h-8.15l-2.04-2.04V21.2"/></symbol><symbol viewBox="-1 -1 88 72" id="creative"><title>ct-white</title><path fill="#fff" opacity=".2" d="M71.04 19.39l-19.58-.02v7.17h22.85v-3.72l-3.27-3.43z"/><path fill="none" stroke="#fff" stroke-miterlimit="10" stroke-width="1.5" d="M51.46 26.54H74.3"/><path fill="none" d="M66.43 22.6h5.51"/><path fill="none" stroke="#fff" stroke-miterlimit="10" stroke-width="1.5" d="M10.34 62.07V46.24M51.46 19.36l19.6.01 3.24 3.45v39.35"/><path fill="none" d="M1.83 61.98v1.39l4.46 2.55h72.43l4.25-2.55v-1.39H1.83z"/><path fill="#fff" opacity=".2" d="M1.83 61.98v1.39l4.18 2.55h72.44l4.52-2.55v-1.39H1.83z"/><path fill="none" stroke="#fff" stroke-miterlimit="10" stroke-width="1.5" d="M64.44 22.7h5.51M40.52 61.98v-8.59H15.56v8.59M44.06 46.24v12.53h25.52V32.84H51.46M51.46 36.3h14.65"/><path fill="none" stroke="#fff" stroke-miterlimit="10" stroke-width="1.5" d="M1.83 10.77h44.4l5.23 5.63v29.84H1.83V10.77z"/><path fill="none" stroke="#fff" stroke-miterlimit="10" stroke-width="1.5" d="M51.46 16.43h-5.48v-5.71"/><path fill="none" d="M46.73 43.09h2.37v-1.58"/><path d="M26.6 41.79h-.9l.05-.82a12.59 12.59 0 0 0 4.51-.52l.24.79a13.27 13.27 0 0 1-3.9.55zm-5.08-1a13.31 13.31 0 0 1-3.38-2l.52-.63a12.48 12.48 0 0 0 3.18 1.91zm12.82-1.49l-.48-.67a12.55 12.55 0 0 0 2.66-2.58l.65.5a13.37 13.37 0 0 1-2.83 2.75zm-19-3.77a13.24 13.24 0 0 1-1.57-3.62l.8-.21a12.4 12.4 0 0 0 1.47 3.4zm23.88-2.76l-.78-.26a12.47 12.47 0 0 0 .65-3.65h.82a13.27 13.27 0 0 1-.72 3.86zm-25-5.08l-.82-.05a13.25 13.25 0 0 1 .83-3.86l.77.29a12.41 12.41 0 0 0-.85 3.65zm24.39-2.82a12.42 12.42 0 0 0-1.59-3.35l.68-.46a13.24 13.24 0 0 1 1.69 3.57zM17 20.59l-.64-.52a13.35 13.35 0 0 1 2.92-2.66l.46.69a12.53 12.53 0 0 0-2.81 2.49zm17.27-2a12.47 12.47 0 0 0-3.24-1.8l.29-.77a13.26 13.26 0 0 1 3.45 1.92zm-10.86-2.16l-.21-.79a13.16 13.16 0 0 1 3.51-.46h.41V16h-.42a12.5 12.5 0 0 0-3.36.43z" fill="#fff" stroke="#fff" stroke-miterlimit="10" stroke-width=".5"/><path fill="none" stroke="#fff" stroke-miterlimit="10" stroke-width="1.5" d="M79.61 5.92V1.98M79.61 13.31V9.37M81.34 7.64h3.94M73.94 7.64h3.94M81.84 23.14l-1.7-1.7M85.28 26.58l-1.7-1.7M83.58 23.14l1.7-1.7M80.14 26.58l1.7-1.7M66.43 14.49l3.09-3.09M60.812 4.82l2.877-2.88 2.879 2.878-2.877 2.878z"/><path fill="#fff" opacity=".2" d="M25.16 29.01l4.74-4.84h4.55l-9.2 9.37-6.38-6.22h4.55l4.1 3.99"/><path fill="none" stroke="#fff" stroke-miterlimit="10" stroke-width="1.5" d="M25.16 29.01l4.74-4.84h4.55l-9.2 9.37-6.38-6.22h4.55l4.1 3.99M1.83 61.98v1.39l4.46 2.55h72.43l4.25-2.55v-1.39H1.83z"/><path fill="none" opacity=".5" d="M0 0h86v70H0z"/></symbol><symbol viewBox="-1 -1 88 72" id="creative-blue"><title>ct-blue</title><path fill="#e8f1f9" d="M71.04 19.39l-19.58-.02v7.17h22.85v-3.72l-3.27-3.43z"/><path fill="none" stroke="#2069db" stroke-miterlimit="10" stroke-width="1.5" d="M51.46 26.54H74.3"/><path fill="none" d="M66.43 22.6h5.51"/><path fill="none" stroke="#2069db" stroke-miterlimit="10" stroke-width="1.5" d="M10.34 62.07V46.24M51.46 19.36l19.6.01 3.24 3.45v39.35"/><path fill="none" d="M1.83 61.98v1.39l4.46 2.55h72.43l4.25-2.55v-1.39H1.83z"/><path fill="#e8f1f9" d="M1.83 61.98v1.39l4.18 2.55h72.44l4.52-2.55v-1.39H1.83z"/><path fill="none" stroke="#2069db" stroke-miterlimit="10" stroke-width="1.5" d="M64.44 22.7h5.51M40.52 61.98v-8.59H15.56v8.59M44.06 46.24v12.53h25.52V32.84H51.46M51.46 36.3h14.65"/><path fill="none" stroke="#2069db" stroke-miterlimit="10" stroke-width="1.5" d="M1.83 10.77h44.4l5.23 5.63v29.84H1.83V10.77z"/><path fill="none" stroke="#2069db" stroke-miterlimit="10" stroke-width="1.5" d="M51.46 16.43h-5.48v-5.71"/><path fill="none" d="M46.73 43.09h2.37v-1.58"/><path d="M26.59 41.79h-.9l.05-.82a12.59 12.59 0 0 0 4.51-.52l.24.79a13.27 13.27 0 0 1-3.9.55zm-5.08-1a13.31 13.31 0 0 1-3.38-2l.52-.63a12.48 12.48 0 0 0 3.18 1.91zm12.82-1.49l-.48-.67a12.55 12.55 0 0 0 2.66-2.58l.65.5a13.37 13.37 0 0 1-2.78 2.75zm-19-3.77a13.24 13.24 0 0 1-1.57-3.62l.8-.21a12.4 12.4 0 0 0 1.47 3.4zm23.88-2.76l-.78-.26a12.47 12.47 0 0 0 .65-3.65h.82a13.27 13.27 0 0 1-.72 3.9zm-25-5.08l-.82-.05a13.25 13.25 0 0 1 .83-3.86l.77.29a12.41 12.41 0 0 0-.85 3.58zm24.39-2.82a12.42 12.42 0 0 0-1.59-3.35l.68-.46a13.24 13.24 0 0 1 1.69 3.57zm-21.61-4.28l-.64-.52a13.35 13.35 0 0 1 2.92-2.66l.46.69a12.53 12.53 0 0 0-2.8 2.49zm17.27-2a12.47 12.47 0 0 0-3.24-1.8l.29-.77a13.26 13.26 0 0 1 3.45 1.92zm-10.88-2.16l-.21-.79a13.16 13.16 0 0 1 3.51-.46h.41V16h-.42a12.5 12.5 0 0 0-3.29.43z" fill="#e8f1f9" stroke="#2069db" stroke-miterlimit="10" stroke-width=".5"/><path fill="none" stroke="#2069db" stroke-miterlimit="10" stroke-width="1.5" d="M79.61 5.92V1.98M79.61 13.31V9.37M81.34 7.64h3.94M73.94 7.64h3.94M81.84 23.14l-1.7-1.7M85.28 26.58l-1.7-1.7M83.58 23.14l1.7-1.7M80.14 26.58l1.7-1.7M66.43 14.49l3.09-3.09M60.809 4.822l2.877-2.88 2.879 2.877-2.877 2.88z"/><path fill="#e8f1f9" d="M25.16 29.01l4.74-4.84h4.55l-9.2 9.37-6.38-6.22h4.55l4.1 3.99"/><path fill="none" stroke="#2069db" stroke-miterlimit="10" stroke-width="1.5" d="M25.16 29.01l4.74-4.84h4.55l-9.2 9.37-6.38-6.22h4.55l4.1 3.99M1.83 61.98v1.39l4.46 2.55h72.43l4.25-2.55v-1.39H1.83z"/><path fill="none" opacity=".5" d="M0 0h86v70H0z"/></symbol><symbol viewBox="-1 -1 88 72" id="creative-dark"><title>ct-grey</title><path fill="#dbdfe5" d="M71.04 19.39l-19.58-.02v7.17h22.85v-3.72l-3.27-3.43z"/><path fill="none" stroke="#5a606c" stroke-miterlimit="10" stroke-width="1.5" d="M51.46 26.54H74.3"/><path fill="none" d="M66.43 22.6h5.51"/><path fill="none" stroke="#5a606c" stroke-miterlimit="10" stroke-width="1.5" d="M10.34 62.07V46.24M51.46 19.36l19.6.01 3.24 3.45v39.35"/><path fill="none" d="M1.83 61.98v1.39l4.46 2.55h72.43l4.25-2.55v-1.39H1.83z"/><path fill="#dbdfe5" d="M1.83 61.98v1.39l4.18 2.55h72.44l4.52-2.55v-1.39H1.83z"/><path fill="none" stroke="#5a606c" stroke-miterlimit="10" stroke-width="1.5" d="M64.44 22.7h5.51M40.52 61.98v-8.59H15.56v8.59M44.06 46.24v12.53h25.52V32.84H51.46M51.46 36.3h14.65"/><path fill="none" stroke="#5a606c" stroke-miterlimit="10" stroke-width="1.5" d="M1.83 10.77h44.4l5.23 5.63v29.84H1.83V10.77z"/><path fill="none" stroke="#5a606c" stroke-miterlimit="10" stroke-width="1.5" d="M51.46 16.43h-5.48v-5.71"/><path fill="none" d="M46.73 43.09h2.37v-1.58"/><path d="M26.59 41.79h-.9l.05-.82a12.59 12.59 0 0 0 4.51-.52l.24.79a13.27 13.27 0 0 1-3.9.55zm-5.08-1a13.31 13.31 0 0 1-3.38-2l.52-.63a12.48 12.48 0 0 0 3.18 1.91zm12.82-1.49l-.48-.67a12.55 12.55 0 0 0 2.66-2.58l.65.5a13.37 13.37 0 0 1-2.82 2.75zm-19-3.77a13.24 13.24 0 0 1-1.57-3.62l.8-.21a12.4 12.4 0 0 0 1.47 3.4zm23.88-2.76l-.78-.26a12.47 12.47 0 0 0 .65-3.65h.82a13.27 13.27 0 0 1-.72 3.9zm-25-5.08l-.82-.05a13.25 13.25 0 0 1 .83-3.86l.77.29a12.41 12.41 0 0 0-.85 3.62zm24.39-2.82a12.42 12.42 0 0 0-1.59-3.35l.68-.46a13.24 13.24 0 0 1 1.69 3.57zm-21.61-4.28l-.64-.52a13.35 13.35 0 0 1 2.92-2.66l.46.69a12.53 12.53 0 0 0-2.8 2.48zm17.27-2a12.47 12.47 0 0 0-3.24-1.8l.29-.77a13.26 13.26 0 0 1 3.45 1.92zM23.4 16.43l-.21-.79a13.16 13.16 0 0 1 3.51-.46h.41V16h-.52a12.5 12.5 0 0 0-3.26.43z" fill="#dbdfe5" stroke="#5a606c" stroke-miterlimit="10" stroke-width=".5"/><path fill="none" stroke="#5a606c" stroke-miterlimit="10" stroke-width="1.5" d="M79.61 5.92V1.98M79.61 13.31V9.37M81.34 7.64h3.94M73.94 7.64h3.94M81.84 23.14l-1.7-1.7M85.28 26.58l-1.7-1.7M83.58 23.14l1.7-1.7M80.14 26.58l1.7-1.7M66.43 14.49l3.09-3.09M60.804 4.826l2.877-2.879 2.88 2.877-2.878 2.88z"/><path fill="#dbdfe5" d="M25.16 29.01l4.74-4.84h4.55l-9.2 9.37-6.38-6.22h4.55l4.1 3.99"/><path fill="none" stroke="#5a606c" stroke-miterlimit="10" stroke-width="1.5" d="M25.16 29.01l4.74-4.84h4.55l-9.2 9.37-6.38-6.22h4.55l4.1 3.99M1.83 61.98v1.39l4.46 2.55h72.43l4.25-2.55v-1.39H1.83z"/><path fill="none" opacity=".5" d="M0 0h86v70H0z"/></symbol><symbol viewBox="-1 -1 88 72" id="creative-disabled"><title>ct-disabled</title><path fill="#ccd5e1" d="M71.04 19.39l-19.58-.02v7.17h22.85v-3.72l-3.27-3.43z"/><path fill="none" stroke="#8097b1" stroke-miterlimit="10" stroke-width="1.5" d="M51.46 26.54H74.3"/><path fill="none" d="M66.43 22.6h5.51"/><path fill="none" stroke="#8097b1" stroke-miterlimit="10" stroke-width="1.5" d="M10.34 62.07V46.24M51.46 19.36l19.6.01 3.24 3.45v39.35"/><path fill="none" d="M1.83 61.98v1.39l4.46 2.55h72.43l4.25-2.55v-1.39H1.83z"/><path fill="#ccd5e1" d="M1.83 61.98v1.39l4.18 2.55h72.44l4.52-2.55v-1.39H1.83z"/><path fill="none" stroke="#8097b1" stroke-miterlimit="10" stroke-width="1.5" d="M64.44 22.7h5.51M40.52 61.98v-8.59H15.56v8.59M44.06 46.24v12.53h25.52V32.84H51.46M51.46 36.3h14.65"/><path fill="none" stroke="#8097b1" stroke-miterlimit="10" stroke-width="1.5" d="M1.83 10.77h44.4l5.23 5.63v29.84H1.83V10.77z"/><path fill="none" stroke="#8097b1" stroke-miterlimit="10" stroke-width="1.5" d="M51.46 16.43h-5.48v-5.71"/><path fill="none" d="M46.73 43.09h2.37v-1.58"/><path d="M26.59 41.79h-.9l.05-.82a12.59 12.59 0 0 0 4.51-.52l.24.79a13.27 13.27 0 0 1-3.9.55zm-5.08-1a13.31 13.31 0 0 1-3.38-2l.52-.63a12.48 12.48 0 0 0 3.18 1.91zm12.82-1.49l-.49-.68a12.55 12.55 0 0 0 2.66-2.58l.65.5a13.37 13.37 0 0 1-2.81 2.76zm-19-3.77a13.24 13.24 0 0 1-1.57-3.62l.8-.21a12.4 12.4 0 0 0 1.47 3.4zm23.88-2.76l-.78-.26a12.47 12.47 0 0 0 .65-3.65h.82a13.27 13.27 0 0 1-.72 3.91zm-25-5.08l-.82-.05a13.25 13.25 0 0 1 .83-3.86l.77.29a12.41 12.41 0 0 0-.85 3.62zm24.39-2.82a12.42 12.42 0 0 0-1.59-3.35l.68-.46a13.24 13.24 0 0 1 1.69 3.57zm-21.67-4.25l-.64-.52a13.35 13.35 0 0 1 2.92-2.66l.46.69a12.53 12.53 0 0 0-2.74 2.49zm17.27-2a12.47 12.47 0 0 0-3.24-1.8l.29-.77a13.26 13.26 0 0 1 3.45 1.92zm-10.86-2.16l-.21-.79a13.16 13.16 0 0 1 3.51-.46h.41v.82h-.42a12.5 12.5 0 0 0-3.3.4z" fill="#ccd5e1" stroke="#8097b1" stroke-miterlimit="10" stroke-width=".5"/><path fill="none" stroke="#8097b1" stroke-miterlimit="10" stroke-width="1.5" d="M79.61 5.92V1.98M79.61 13.31V9.37M81.34 7.64h3.94M73.94 7.64h3.94M81.84 23.14l-1.7-1.7M85.28 26.58l-1.7-1.7M83.58 23.14l1.7-1.7M80.14 26.58l1.7-1.7M66.43 14.49l3.09-3.09M60.82 4.809l2.877-2.88 2.88 2.878-2.878 2.879z"/><path fill="#ccd5e1" d="M25.16 29.01l4.74-4.84h4.55l-9.2 9.37-6.38-6.22h4.55l4.1 3.99"/><path fill="none" stroke="#8097b1" stroke-miterlimit="10" stroke-width="1.5" d="M25.16 29.01l4.74-4.84h4.55l-9.2 9.37-6.38-6.22h4.55l4.1 3.99M1.83 61.98v1.39l4.46 2.55h72.43l4.25-2.55v-1.39H1.83z"/><path fill="none" opacity=".5" d="M0 0h86v70H0z"/></symbol><symbol viewBox="-1 -1 54.16 44" id="creative-mobile"><title>mobile_creative_team</title><path fill="none" d="M38.76 12.99h3.39"/><path fill="none" stroke="#5a606c" stroke-miterlimit="10" d="M6.26 37.26V26.03M29.55 11l12.05.01 2 2.12v24.2M37.53 13.15h3.39M21.83 37.21v-5.28H9.47v5.28"/><path fill="none" stroke="#5a606c" stroke-miterlimit="10" d="M25 26.03v8.2h15.69V19.29H29.55M29.55 22.02h7.98"/><path fill="none" stroke="#5a606c" stroke-miterlimit="10" d="M1.03 3.72h24.8l3.72 3.96v17.85H1.03V3.72z"/><path fill="none" stroke="#5a606c" stroke-miterlimit="10" d="M29.43 7.64h-3.56v-3.8M46.96 4.36V1.31M46.96 10.09V7.04M48.3 5.7h3.05M42.57 5.7h3.05M13.81 15.03l4.36-4.45h4.18l-8.46 8.62-5.87-5.72h4.18l3.78 3.66M1.03 37.21v1.86l1.74 1.76h44.55l1.61-1.76v-1.86H1.03zM37.5 1.082l1.767 1.768-1.768 1.768-1.768-1.768z"/><path fill="#5a606c" d="M50.919 13.441l1.202 1.202-1.202 1.202-1.202-1.202z"/><path fill="none" opacity=".5" d="M0 0h52v42H0z"/></symbol><symbol viewBox="-1 -1 99.9 76.3" id="dev"><title>33_development_team_icon</title><path fill="#fff" opacity=".2" d="M.75 10.65V4.12L4.74.09h66.41l3.55 4.03v6.53H.75zM71.15 58.19H4.74L.75 54.51v-4.24H74.7v4.24l-3.55 3.68zM81.3 52.91h15.85v5.28H81.3z"/><path fill="none" stroke="#fff" stroke-miterlimit="10" stroke-width="1.5" d="M89.22 58.19v7.92H60.83v7.05M22.51 73.55l2.64-16.02h25.58l2.65 15.94M71.15 57.53H4.74L.75 54.08V4.73L4.74.75h66.41l3.55 3.98v49.35l-3.55 3.45z"/><circle cx="7.71" cy="5.63" r="1.25" fill="#fff"/><circle cx="12.25" cy="5.63" r="1.25" fill="#fff"/><circle cx="16.79" cy="5.63" r="1.25" fill="#fff"/><circle cx="37.94" cy="53.72" r="1.25" fill="#fff"/><path fill="none" stroke="#fff" stroke-miterlimit="10" stroke-width="1.5" d="M10.65 16.78h19.81v6.6H10.65zM10.65 27.34h19.81v6.6H10.65zM10.65 37.9h19.81v6.6H10.65zM37.06 16.78h27.73v27.73H37.06z"/><path fill="none" stroke="#fff" stroke-miterlimit="10" stroke-width="1.5" d="M45.44 25.73l-4.47 4.47 4.22 4.22M56.52 34.42L61 29.95l-4.22-4.22M53.57 22.7l-6.11 15.52M61.49 5.37h7.27M81.3 32.44h15.85v25.75H81.3z"/><circle cx="89.22" cy="55.16" r="1" fill="#fff"/><path fill="none" stroke="#fff" stroke-miterlimit="10" stroke-width="1.5" d="M85.26 39.66h7.92M85.26 43.51h7.92M74.04 73.47l-72.63.08"/></symbol><symbol viewBox="-1 -1 99.9 76.3" id="dev-blue"><title>2_development_team_icon</title><path fill="#e8f1f9" d="M.75 10.65V4.12L4.74.09h66.41l3.55 4.03v6.53H.75zM71.15 58.19H4.74L.75 54.51v-4.24H74.7v4.24l-3.55 3.68zM81.3 52.91h15.85v5.28H81.3z"/><path fill="none" stroke="#2069db" stroke-miterlimit="10" stroke-width="1.5" d="M89.22 58.19v7.92H60.83v7.05M22.51 73.55l2.64-16.02h25.58l2.65 15.94M71.15 57.53H4.74L.75 54.08V4.73L4.74.75h66.41l3.55 3.98v49.35l-3.55 3.45z"/><circle cx="7.71" cy="5.63" r="1.25" fill="#2069db"/><circle cx="12.25" cy="5.63" r="1.25" fill="#2069db"/><circle cx="16.79" cy="5.63" r="1.25" fill="#2069db"/><circle cx="37.94" cy="53.72" r="1.25" fill="#2069db"/><path fill="none" stroke="#2069db" stroke-miterlimit="10" stroke-width="1.5" d="M10.65 16.78h19.81v6.6H10.65zM10.65 27.34h19.81v6.6H10.65zM10.65 37.9h19.81v6.6H10.65zM37.06 16.78h27.73v27.73H37.06z"/><path fill="none" stroke="#2069db" stroke-miterlimit="10" stroke-width="1.5" d="M45.44 25.73l-4.47 4.47 4.22 4.22M56.52 34.42L61 29.95l-4.22-4.22M53.57 22.7l-6.11 15.52M61.49 5.37h7.27M81.3 32.44h15.85v25.75H81.3z"/><circle cx="89.22" cy="55.16" r="1" fill="#2069db"/><path fill="none" stroke="#2069db" stroke-miterlimit="10" stroke-width="1.5" d="M85.26 39.66h7.92M85.26 43.51h7.92M74.04 73.47l-72.63.08"/></symbol><symbol viewBox="-1 -1 99.9 76.3" id="dev-dark"><title>1_development_team_icon</title><path fill="#dbdfe5" d="M.75 10.65V4.12L4.74.09h66.41l3.55 4.03v6.53H.75zM71.15 58.19H4.74L.75 54.51v-4.24H74.7v4.24l-3.55 3.68zM81.3 52.91h15.85v5.28H81.3z"/><path fill="none" stroke="#5a606c" stroke-miterlimit="10" stroke-width="1.5" d="M89.22 58.19v7.92H60.83v7.05M22.51 73.55l2.64-16.02h25.58l2.65 15.94M71.15 57.53H4.74L.75 54.08V4.73L4.74.75h66.41l3.55 3.98v49.35l-3.55 3.45z"/><circle cx="7.71" cy="5.63" r="1.25" fill="#5a606c"/><circle cx="12.25" cy="5.63" r="1.25" fill="#5a606c"/><circle cx="16.79" cy="5.63" r="1.25" fill="#5a606c"/><circle cx="37.94" cy="53.72" r="1.25" fill="#5a606c"/><path fill="none" stroke="#5a606c" stroke-miterlimit="10" stroke-width="1.5" d="M10.65 16.78h19.81v6.6H10.65zM10.65 27.34h19.81v6.6H10.65zM10.65 37.9h19.81v6.6H10.65zM37.06 16.78h27.73v27.73H37.06z"/><path fill="none" stroke="#5a606c" stroke-miterlimit="10" stroke-width="1.5" d="M45.44 25.73l-4.47 4.47 4.22 4.22M56.52 34.42L61 29.95l-4.22-4.22M53.57 22.7l-6.11 15.52M61.49 5.37h7.27M81.3 32.44h15.85v25.75H81.3z"/><circle cx="89.22" cy="55.16" r="1" fill="#5a606c"/><path fill="none" stroke="#5a606c" stroke-miterlimit="10" stroke-width="1.5" d="M85.26 39.66h7.92M85.26 43.51h7.92M74.04 73.47l-72.63.08"/></symbol><symbol viewBox="-1 -1 99.9 76.3" id="dev-disabled"><title>43_development_team_icon</title><path fill="#ccd5e1" d="M.75 10.65V4.12L4.74.09h66.41l3.55 4.03v6.53H.75zM71.15 58.19H4.74L.75 54.51v-4.24H74.7v4.24l-3.55 3.68zM81.3 52.91h15.85v5.28H81.3z"/><path fill="none" stroke="#8097b1" stroke-miterlimit="10" stroke-width="1.5" d="M89.22 58.19v7.92H60.83v7.05M22.51 73.55l2.64-16.02h25.58l2.65 15.94M71.15 57.53H4.74L.75 54.08V4.73L4.74.75h66.41l3.55 3.98v49.35l-3.55 3.45z"/><circle cx="7.71" cy="5.63" r="1.25" fill="#8097b1"/><circle cx="12.25" cy="5.63" r="1.25" fill="#8097b1"/><circle cx="16.79" cy="5.63" r="1.25" fill="#8097b1"/><circle cx="37.94" cy="53.72" r="1.25" fill="#8097b1"/><path fill="none" stroke="#8097b1" stroke-miterlimit="10" stroke-width="1.5" d="M10.65 16.78h19.81v6.6H10.65zM10.65 27.34h19.81v6.6H10.65zM10.65 37.9h19.81v6.6H10.65zM37.06 16.78h27.73v27.73H37.06z"/><path fill="none" stroke="#8097b1" stroke-miterlimit="10" stroke-width="1.5" d="M45.44 25.73l-4.47 4.47 4.22 4.22M56.52 34.42L61 29.95l-4.22-4.22M53.57 22.7l-6.11 15.52M61.49 5.37h7.27M81.3 32.44h15.85v25.75H81.3z"/><circle cx="89.22" cy="55.16" r="1" fill="#8097b1"/><path fill="none" stroke="#8097b1" stroke-miterlimit="10" stroke-width="1.5" d="M85.26 39.66h7.92M85.26 43.51h7.92M74.04 73.47l-72.63.08"/></symbol><symbol viewBox="-1 -1 53.27 40.96" id="dev-mobile"><title>mobile_icon_development_team</title><path fill="none" stroke="#5a606c" stroke-miterlimit="10" d="M5.16 4.13h3.77M46.64 30.45v4.14H31.83v3.67M11.85 38.46l1.37-8.35h13.35l1.37 8.31"/><path fill="none" stroke="#5a606c" stroke-miterlimit="10" d="M37.21 30.11H2.58L.5 28.31V2.57L2.58.5h34.63l1.85 2.07v25.74l-1.85 1.8z"/><circle cx="19.9" cy="27.12" r=".99" fill="#5a606c"/><path fill="none" stroke="#5a606c" stroke-miterlimit="10" d="M5.66 9.02h10.33v4.5H5.66z"/><path fill="none" stroke="#5a606c" stroke-miterlimit="10" d="M5.66 13.5h10.33V18H5.66zM5.66 18.04h10.33v4.5H5.66zM19.44 8.86H33.9v13.69H19.44z"/><path fill="none" stroke="#5a606c" stroke-miterlimit="10" d="M23.81 13.53l-2.34 2.33 2.2 2.2M29.59 18.06l2.33-2.33-2.2-2.2M28.04 11.95l-3.18 8.09"/><path fill="#fff" stroke="#5a606c" stroke-miterlimit="10" d="M30.68 3.91h5.28"/><path fill="none" stroke="#5a606c" stroke-miterlimit="10" d="M42.51 17.03h8.26v13.43h-8.26zM44.57 20.79h4.13M38.72 38.42l-37.88.04"/></symbol><symbol viewBox="-1 -1 93.64 78.77" id="marketing"><title>3_creative_team_icon</title><path fill="#fff" opacity=".2" d="M.75.75h71.53v11H.75zM7.85 41.18l.01-1.99 10.43-9.83 4.91 4.91 9.83-9.82 10.62 10.42v6.45l-35.8-.14z"/><path fill="none" stroke="#fff" stroke-miterlimit="10" stroke-width="1.5" d="M57.41 6.45h10.22M7.7 6.45h7.21M7.54 17.65h36.19v23.16H7.54z"/><path fill="none" stroke="#fff" stroke-miterlimit="10" stroke-width="1.5" d="M7.62 39.25l10.54-10.04 4.99 5 10-9.99L43.73 34.8"/><path fill="#fff" opacity=".2" d="M10.863 24.357l3.288-3.288 3.288 3.288-3.288 3.288z"/><path fill="none" stroke="#fff" stroke-miterlimit="10" stroke-width="1.5" d="M68.17 73.02h8.58v3h-8.58zM66.39 65.2l-4.46-4.46v-8.91l5.95-6.1h8.91l5.61 6.1v8.91l-4.29 4.46"/><path fill="none" stroke="#fff" stroke-miterlimit="10" stroke-width="1.5" d="M66.39 65.2l-4.46-4.46v-8.91l5.95-6.1h8.91l5.61 6.1v8.91l-4.29 4.46"/><path fill="#fff" opacity=".2" d="M70.65 64.87v-5.62l-2.64-4.28h8.91l-2.97 4.28v5.62"/><path fill="none" stroke="#fff" stroke-miterlimit="10" stroke-width="1.5" d="M66.42 65.02H78.3v4H66.42zM66.42 69.02H78.3v4H66.42zM82.73 44.27l4.28-4.29M85.7 56.29h5.94M61.93 44.34l-4.28-4.28M58.63 56.29h-5.94M7.79 48.12h15.89M7.79 52.76h15.89M28.22 48.12h15.89M28.22 52.76h15.89M27.78 61.8h20.46M27.78 66.46h17.16"/><path fill="#fff" opacity=".2" d="M8.22 60.39h12v6h-12z"/><path fill="none" stroke="#fff" stroke-miterlimit="10" stroke-width="1.5" d="M72.28 40.33v-6.06M72.28 29.13V.75H.75v72.19h62.39"/><path fill="none" stroke="#fff" stroke-miterlimit="10" stroke-width="1.5" d="M50.89 20.51h3.47v9.34h-3.47z"/><path fill="none" stroke="#fff" stroke-miterlimit="10" stroke-width="1.5" d="M54.36 28.86h7.54l2.04-7.4h-4.49l1.66-3.81h-2.42l-2.62 3.91h-1.71M8.22 60.39h12v6h-12zM10.863 24.357l3.288-3.288 3.288 3.288-3.288 3.288zM70.65 64.87v-5.62l-2.64-4.28h8.91l-2.97 4.28v5.62"/></symbol><symbol viewBox="-1 -1 93.64 78.77" id="marketing-blue"><title>2_creative_team_icon</title><path fill="#e8f1f9" d="M.75.75h71.53v11H.75zM7.85 41.18l.01-1.99 10.43-9.83 4.91 4.91 9.83-9.82 10.62 10.42v6.45l-35.8-.14z"/><path fill="none" stroke="#2069db" stroke-miterlimit="10" stroke-width="1.5" d="M57.41 6.45h10.22M7.7 6.45h7.21M7.54 17.65h36.19v23.16H7.54z"/><path fill="none" stroke="#2069db" stroke-miterlimit="10" stroke-width="1.5" d="M7.62 39.25l10.54-10.04 4.99 5 10-9.99L43.73 34.8"/><path fill="#e8f1f9" d="M10.87 24.363l3.287-3.288 3.288 3.288-3.288 3.288z"/><path fill="none" stroke="#2069db" stroke-miterlimit="10" stroke-width="1.5" d="M68.17 73.02h8.58v3h-8.58zM66.39 65.2l-4.46-4.46v-8.91l5.95-6.1h8.91l5.61 6.1v8.91l-4.29 4.46"/><path fill="none" stroke="#2069db" stroke-miterlimit="10" stroke-width="1.5" d="M66.39 65.2l-4.46-4.46v-8.91l5.95-6.1h8.91l5.61 6.1v8.91l-4.29 4.46"/><path fill="#e8f1f9" d="M70.65 64.87v-5.62l-2.64-4.28h8.91l-2.97 4.28v5.62"/><path fill="none" stroke="#2069db" stroke-miterlimit="10" stroke-width="1.5" d="M66.42 65.02H78.3v4H66.42zM66.42 69.02H78.3v4H66.42zM82.73 44.27l4.28-4.29M85.7 56.29h5.94M61.93 44.34l-4.28-4.28M58.63 56.29h-5.94M7.79 48.12h15.89M7.79 52.76h15.89M28.22 48.12h15.89M28.22 52.76h15.89M27.78 61.8h20.46M27.78 66.46h17.16"/><path fill="#e8f1f9" d="M8.22 60.39h12v6h-12z"/><path fill="none" stroke="#2069db" stroke-miterlimit="10" stroke-width="1.5" d="M72.28 40.33v-6.06M72.28 29.13V.75H.75v72.19h62.39"/><path fill="none" stroke="#2069db" stroke-miterlimit="10" stroke-width="1.5" d="M50.89 20.51h3.47v9.34h-3.47z"/><path fill="none" stroke="#2069db" stroke-miterlimit="10" stroke-width="1.5" d="M54.36 28.86h7.54l2.04-7.4h-4.49l1.66-3.81h-2.42l-2.62 3.91h-1.71M8.22 60.39h12v6h-12zM10.87 24.363l3.287-3.288 3.288 3.288-3.288 3.288zM70.65 64.87v-5.62l-2.64-4.28h8.91l-2.97 4.28v5.62"/></symbol><symbol viewBox="-1 -1 93.64 78.77" id="marketing-dark"><title>1_creative_team_icon</title><path fill="#dbdfe5" d="M.75.75h71.53v11H.75zM7.85 41.18l.01-1.99 10.43-9.83 4.91 4.91 9.83-9.82 10.62 10.42v6.45l-35.8-.14z"/><path fill="none" stroke="#5a606c" stroke-miterlimit="10" stroke-width="1.5" d="M57.41 6.45h10.22M7.7 6.45h7.21M7.54 17.65h36.19v23.16H7.54z"/><path fill="none" stroke="#5a606c" stroke-miterlimit="10" stroke-width="1.5" d="M7.62 39.25l10.54-10.04 4.99 5 10-9.99L43.73 34.8"/><path fill="#dbdfe5" d="M10.866 24.36l3.288-3.288 3.288 3.288-3.288 3.289z"/><path fill="none" stroke="#5a606c" stroke-miterlimit="10" stroke-width="1.5" d="M68.17 73.02h8.58v3h-8.58zM66.39 65.2l-4.46-4.46v-8.91l5.95-6.1h8.91l5.61 6.1v8.91l-4.29 4.46"/><path fill="none" stroke="#5a606c" stroke-miterlimit="10" stroke-width="1.5" d="M66.39 65.2l-4.46-4.46v-8.91l5.95-6.1h8.91l5.61 6.1v8.91l-4.29 4.46"/><path fill="#dbdfe5" d="M70.65 64.87v-5.62l-2.64-4.28h8.91l-2.97 4.28v5.62"/><path fill="none" stroke="#5a606c" stroke-miterlimit="10" stroke-width="1.5" d="M66.42 65.02H78.3v4H66.42zM66.42 69.02H78.3v4H66.42zM82.73 44.27l4.28-4.29M85.7 56.29h5.94M61.93 44.34l-4.28-4.28M58.63 56.29h-5.94M7.79 48.12h15.89M7.79 52.76h15.89M28.22 48.12h15.89M28.22 52.76h15.89M27.78 61.8h20.46M27.78 66.46h17.16"/><path fill="#dbdfe5" d="M8.22 60.39h12v6h-12z"/><path fill="none" stroke="#5a606c" stroke-miterlimit="10" stroke-width="1.5" d="M72.28 40.33v-6.06M72.28 29.13V.75H.75v72.19h62.39"/><path fill="none" stroke="#5a606c" stroke-miterlimit="10" stroke-width="1.5" d="M50.89 20.51h3.47v9.34h-3.47z"/><path fill="none" stroke="#5a606c" stroke-miterlimit="10" stroke-width="1.5" d="M54.36 28.86h7.54l2.04-7.4h-4.49l1.66-3.81h-2.42l-2.62 3.91h-1.71M8.22 60.39h12v6h-12zM10.866 24.36l3.288-3.288 3.288 3.288-3.288 3.289zM70.65 64.87v-5.62l-2.64-4.28h8.91l-2.97 4.28v5.62"/></symbol><symbol viewBox="-1 -1 93.64 78.77" id="marketing-disabled"><title>41_creative_team_icon</title><path fill="#ccd5e1" d="M.75.75h71.53v11H.75zM7.85 41.18l.01-1.99 10.43-9.83 4.91 4.91 9.83-9.82 10.62 10.42v6.45l-35.8-.14z"/><path fill="none" stroke="#8097b1" stroke-miterlimit="10" stroke-width="1.5" d="M57.41 6.45h10.22M7.7 6.45h7.21M7.54 17.65h36.19v23.16H7.54z"/><path fill="none" stroke="#8097b1" stroke-miterlimit="10" stroke-width="1.5" d="M7.62 39.25l10.54-10.04 4.99 5 10-9.99L43.73 34.8"/><path fill="#ccd5e1" d="M10.868 24.362l3.288-3.288 3.288 3.288-3.288 3.288z"/><path fill="none" stroke="#8097b1" stroke-miterlimit="10" stroke-width="1.5" d="M68.17 73.02h8.58v3h-8.58zM66.39 65.2l-4.46-4.46v-8.91l5.95-6.1h8.91l5.61 6.1v8.91l-4.29 4.46"/><path fill="none" stroke="#8097b1" stroke-miterlimit="10" stroke-width="1.5" d="M66.39 65.2l-4.46-4.46v-8.91l5.95-6.1h8.91l5.61 6.1v8.91l-4.29 4.46"/><path fill="#ccd5e1" d="M70.65 64.87v-5.62l-2.64-4.28h8.91l-2.97 4.28v5.62"/><path fill="none" stroke="#8097b1" stroke-miterlimit="10" stroke-width="1.5" d="M66.42 65.02H78.3v4H66.42zM66.42 69.02H78.3v4H66.42zM82.73 44.27l4.28-4.29M85.7 56.29h5.94M61.93 44.34l-4.28-4.28M58.63 56.29h-5.94M7.79 48.12h15.89M7.79 52.76h15.89M28.22 48.12h15.89M28.22 52.76h15.89M27.78 61.8h20.46M27.78 66.46h17.16"/><path fill="#ccd5e1" d="M8.22 60.39h12v6h-12z"/><path fill="none" stroke="#8097b1" stroke-miterlimit="10" stroke-width="1.5" d="M72.28 40.33v-6.06M72.28 29.13V.75H.75v72.19h62.39"/><path fill="none" stroke="#8097b1" stroke-miterlimit="10" stroke-width="1.5" d="M50.89 20.51h3.47v9.34h-3.47z"/><path fill="none" stroke="#8097b1" stroke-miterlimit="10" stroke-width="1.5" d="M54.36 28.86h7.54l2.04-7.4h-4.49l1.66-3.81h-2.42l-2.62 3.91h-1.71M8.22 60.39h12v6h-12zM10.868 24.362l3.288-3.288 3.288 3.288-3.288 3.288zM70.65 64.87v-5.62l-2.64-4.28h8.91l-2.97 4.28v5.62"/></symbol><symbol viewBox="-1 -1 49.9 42.6" id="marketing-mobile"><title>mobile_icon_creative_team</title><path fill="none" stroke="#5a606c" stroke-miterlimit="10" d="M28.55 4.47h5.33M4.62 4.47h3.77M5.04 9.31h18.87v12.08H5.04z"/><path fill="none" stroke="#5a606c" stroke-miterlimit="10" d="M6.57 21.19l5.53-5.25 2.31 2.31 4.61-4.62 4.89 4.89M7.274 13.808l1.711-1.71 1.711 1.71-1.71 1.711zM34.73 36.11l-2.32-2.33v-4.64l3.09-3.19h4.65l2.93 3.19v4.64l-2.24 2.33"/><path fill="none" stroke="#5a606c" stroke-miterlimit="10" d="M34.73 36.11l-2.32-2.33v-4.64l3.09-3.19h4.65l2.93 3.19v4.64l-2.24 2.33M35.57 30.77h4.65"/><path fill="none" stroke="#5a606c" stroke-miterlimit="10" d="M34.75 36.02h6.2v2.04h-6.2zM34.75 38.06h6.2v2.04h-6.2zM43.25 25.19l2.23-2.23M44.8 31.46h3.1M32.41 25.23L30.17 23M30.68 31.46h-3.09M37.85 31.03v4.99M4.54 29.2h8.29M16.2 29.2h8.28M4.54 32.77h8.29M16.2 32.77h8.28M37.8 23.14v-3.16M37.8 16.84V.5H.5v37.64h31.04"/></symbol><symbol viewBox="-1 -1 89.08 76.98" id="pm"><title>3_marketing_team_icon</title><path fill="#fff" opacity=".2" d="M2.73 48.95h58.51v6.6H2.73z"/><path fill="none" stroke="#fff" stroke-miterlimit="10" stroke-width="1.5" d="M47.16 26.28l-5.46-5.46h-4.52"/><path fill="#fff" opacity=".2" d="M.75.75h75.27v4.62H.75z"/><path fill="none" stroke="#fff" stroke-miterlimit="10" stroke-width="1.5" d="M49.7 27.3l3.07 3.07 15.22-15.49M31.27 32.21l5.68 5.68 10.01-10.02M18.44 37.77l2.59 2.59 7.91-7.91M10.33 44.16l5.65-5.64"/><path fill="none" stroke="#fff" stroke-miterlimit="10" stroke-width="1.5" d="M64.21 14.88h4.01v3.84M15.18 35.89l-3.86-3.85H6.81M29.04 29.95l-3.85-3.85h-4.51M21.29 59.51h29.75M50.46 55.88l2.9 18.9M19.44 74.87l2.91-18.99"/><circle cx="16.88" cy="37.08" r="1.71" fill="#fff" opacity=".2"/><circle cx="29.98" cy="31.11" r="1.71" fill="#fff" opacity=".2"/><circle cx="48.13" cy="26.63" r="1.71" fill="#fff" opacity=".2"/><path fill="none" stroke="#fff" stroke-miterlimit="10" stroke-width="1.5" d="M61.17 55.55H2.73V5.37h71.31v27.07"/><path fill="none" stroke="#fff" stroke-miterlimit="10" stroke-width="1.5" d="M80.59 34.42h5.74v33.02H61.24V34.42h5.52M65.86 44.99h15.85M65.86 50.15h15.85M65.86 55.32h15.85"/><path fill="#fff" opacity=".2" d="M67.51 32.44h12.54v3.96H67.51z"/><path fill="none" stroke="#fff" stroke-miterlimit="10" stroke-width="1.5" d="M67.51 32.44h12.54v3.96H67.51zM.75.75h75.27v4.62H.75z"/><circle cx="16.88" cy="37.08" r="1.71" fill="none" stroke="#fff" stroke-miterlimit="10" stroke-width="1.5"/><circle cx="29.98" cy="31.11" r="1.71" fill="none" stroke="#fff" stroke-miterlimit="10" stroke-width="1.5"/><circle cx="48.13" cy="26.63" r="1.71" fill="none" stroke="#fff" stroke-miterlimit="10" stroke-width="1.5"/></symbol><symbol viewBox="-1 -1 89.08 76.98" id="pm-blue"><title>icons_for_frontend</title><path fill="#e8f1f9" d="M2.73 48.95h58.51v6.6H2.73z"/><path fill="none" stroke="#2069db" stroke-miterlimit="10" stroke-width="1.5" d="M47.16 26.28l-5.46-5.46h-4.52"/><path fill="#e8f1f9" d="M.75.75h75.27v4.62H.75z"/><path fill="none" stroke="#2069db" stroke-miterlimit="10" stroke-width="1.5" d="M10.33 44.16l7.25-7.25 3.45 3.45 9.2-9.19 6.72 6.72 11.67-11.68 4.15 4.16 15.22-15.49"/><path fill="none" stroke="#2069db" stroke-miterlimit="10" stroke-width="1.5" d="M64.21 14.88h4.01v3.84M15.18 35.89l-3.86-3.85H6.81M29.04 29.95l-3.85-3.85h-4.51M21.29 59.51h29.75M50.46 55.88l2.9 18.9M19.44 74.87l2.91-18.99"/><circle cx="16.88" cy="37.08" r="1.71" fill="#e8f1f9"/><circle cx="29.98" cy="31.11" r="1.71" fill="#e8f1f9"/><circle cx="48.13" cy="26.63" r="1.71" fill="#e8f1f9"/><path fill="none" stroke="#2069db" stroke-miterlimit="10" stroke-width="1.5" d="M61.17 55.55H2.73V5.37h71.31v27.07"/><path fill="none" stroke="#2069db" stroke-miterlimit="10" stroke-width="1.5" d="M61.24 34.42h25.09v33.01H61.24zM65.86 44.99h15.85M65.86 50.15h15.85M65.86 55.32h15.85"/><path fill="#e8f1f9" d="M67.51 32.44h12.54v3.96H67.51z"/><path fill="none" stroke="#2069db" stroke-miterlimit="10" stroke-width="1.5" d="M67.51 32.44h12.54v3.96H67.51zM.75.75h75.27v4.62H.75z"/><circle cx="16.88" cy="37.08" r="1.71" fill="none" stroke="#2069db" stroke-miterlimit="10" stroke-width="1.5"/><circle cx="29.98" cy="31.11" r="1.71" fill="none" stroke="#2069db" stroke-miterlimit="10" stroke-width="1.5"/><circle cx="48.13" cy="26.63" r="1.71" fill="none" stroke="#2069db" stroke-miterlimit="10" stroke-width="1.5"/></symbol><symbol viewBox="-1 -1 89.08 76.98" id="pm-dark"><title>1_marketing_team_icon</title><path fill="#dce0e5" d="M2.73 48.95h58.51v6.6H2.73z"/><path fill="none" stroke="#5a606c" stroke-miterlimit="10" stroke-width="1.5" d="M47.16 26.28l-5.46-5.46h-4.52"/><path fill="#dce0e5" d="M.75.75h75.27v4.62H.75z"/><path fill="none" stroke="#5a606c" stroke-miterlimit="10" stroke-width="1.5" d="M10.33 44.16l7.25-7.25 3.45 3.45 9.2-9.19 6.72 6.72 11.67-11.68 4.15 4.16 15.22-15.49"/><path fill="none" stroke="#5a606c" stroke-miterlimit="10" stroke-width="1.5" d="M64.21 14.88h4.01v3.84M15.18 35.89l-3.86-3.85H6.81M29.04 29.95l-3.85-3.85h-4.51"/><path fill="#fff" stroke="#5a606c" stroke-miterlimit="10" stroke-width="1.5" d="M21.29 59.51h29.75"/><path fill="none" stroke="#5a606c" stroke-miterlimit="10" stroke-width="1.5" d="M50.46 55.88l2.9 18.9M19.44 74.87l2.91-18.99"/><circle cx="16.88" cy="37.08" r="1.71" fill="#dce0e5"/><circle cx="29.98" cy="31.11" r="1.71" fill="#dce0e5"/><circle cx="48.13" cy="26.63" r="1.71" fill="#dce0e5"/><path fill="none" stroke="#5a606c" stroke-miterlimit="10" stroke-width="1.5" d="M61.17 55.55H2.73V5.37h71.31v27.07"/><path fill="none" stroke="#5a606c" stroke-miterlimit="10" stroke-width="1.5" d="M61.24 34.42h25.09v33.01H61.24zM65.86 44.99h15.85M65.86 50.15h15.85M65.86 55.32h15.85"/><path fill="#dce0e5" d="M67.51 32.44h12.54v3.96H67.51z"/><path fill="none" stroke="#5a606c" stroke-miterlimit="10" stroke-width="1.5" d="M67.51 32.44h12.54v3.96H67.51zM.75.75h75.27v4.62H.75z"/><circle cx="16.88" cy="37.08" r="1.71" fill="none" stroke="#5a606c" stroke-miterlimit="10" stroke-width="1.5"/><circle cx="29.98" cy="31.11" r="1.71" fill="none" stroke="#5a606c" stroke-miterlimit="10" stroke-width="1.5"/><circle cx="48.13" cy="26.63" r="1.71" fill="none" stroke="#5a606c" stroke-miterlimit="10" stroke-width="1.5"/></symbol><symbol viewBox="-1 -1 89.08 76.98" id="pm-disabled"><title>42_pm_team_icon</title><path fill="#ccd5e1" d="M2.73 48.95h58.51v6.6H2.73z"/><path fill="none" stroke="#8097b1" stroke-miterlimit="10" stroke-width="1.5" d="M47.16 26.28l-5.46-5.46h-4.52"/><path fill="#ccd5e1" d="M.75.75h75.27v4.62H.75z"/><path fill="none" stroke="#8097b1" stroke-miterlimit="10" stroke-width="1.5" d="M10.33 44.16l7.25-7.25 3.45 3.45 9.2-9.19 6.72 6.72 11.67-11.68 4.15 4.16 15.22-15.49"/><path fill="none" stroke="#8097b1" stroke-miterlimit="10" stroke-width="1.5" d="M64.21 14.88h4.01v3.84M15.18 35.89l-3.86-3.85H6.81M29.04 29.95l-3.85-3.85h-4.51M21.29 59.51h29.75M50.46 55.88l2.9 18.9M19.44 74.87l2.91-18.99"/><circle cx="16.88" cy="37.08" r="1.71" fill="#ccd5e1"/><circle cx="29.98" cy="31.11" r="1.71" fill="#ccd5e1"/><circle cx="48.13" cy="26.63" r="1.71" fill="#ccd5e1"/><path fill="none" stroke="#8097b1" stroke-miterlimit="10" stroke-width="1.5" d="M61.17 55.55H2.73V5.37h71.31v27.07"/><path fill="none" stroke="#8097b1" stroke-miterlimit="10" stroke-width="1.5" d="M61.24 34.42h25.09v33.01H61.24zM65.86 44.99h15.85M65.86 50.15h15.85M65.86 55.32h15.85"/><path fill="#ccd5e1" d="M67.51 32.44h12.54v3.96H67.51z"/><path fill="none" stroke="#8097b1" stroke-miterlimit="10" stroke-width="1.5" d="M67.51 32.44h12.54v3.96H67.51zM.75.75h75.27v4.62H.75z"/><circle cx="16.88" cy="37.08" r="1.71" fill="none" stroke="#8097b1" stroke-miterlimit="10" stroke-width="1.5"/><circle cx="29.98" cy="31.11" r="1.71" fill="none" stroke="#8097b1" stroke-miterlimit="10" stroke-width="1.5"/><circle cx="48.13" cy="26.63" r="1.71" fill="none" stroke="#8097b1" stroke-miterlimit="10" stroke-width="1.5"/></symbol><symbol viewBox="-1 -1 47.63 41.23" id="pm-mobile"><title>mobile_icon_pm_team</title><path fill="none" stroke="#5a606c" stroke-miterlimit="10" d="M.5.5h39.25v3.2H.5zM5.38 23.85l6.49-6.49 3.01 3.01 6.08-6.09 2.67 2.67 7.93-8.08"/><path fill="none" stroke="#5a606c" stroke-miterlimit="10" d="M27.76 8.83h4.02v3.86"/><path fill="#fff" stroke="#5a606c" stroke-miterlimit="10" d="M11.21 33.14h15.51"/><path fill="none" stroke="#5a606c" stroke-miterlimit="10" d="M26.42 29.25l1.52 9.86M10.25 39.15l1.51-9.9M38.72 3.91v12.18M32.01 29.08H1.53V3.91M41.86 18.06h3.27v17.21H32.04V18.06h3.27"/><path fill="none" stroke="#5a606c" stroke-miterlimit="10" d="M35.31 16.09h6.54v3.94h-6.54zM41.86 23.85h-6.55M41.86 27.17h-6.55"/></symbol></svg>