<svg xmlns="http://www.w3.org/2000/svg" width="645.811" height="418.457" viewBox="0 0 645.810953084299 418.4572194314193"><title>pattern</title><path d="M238.717 58.68l-5.51-5.51v-1.83l1.84-1.84h1.83l1.84 1.84 1.84-1.84h1.83l1.84 1.84v1.83zM74.207 209.5v-9l9.03-9h9.03l9.03 9 9.03-9h9.03l9.03 9v9l-27.09 26.99zM373.207 316.5v-15l15-15h15l15 15 15-15h15l15 15v15l-45 44.99zM386.527 46.46l-13.32-13.78v-4.59l4.44-4.59h4.44l4.44 4.59 4.44-4.59h4.43l4.44 4.59v4.59zM95.607 252.5l117.61 117.59-58.82-.01-88.19-88.18z" fill-opacity="0" fill="#fff" stroke-dasharray="0" stroke="#52b4ff" stroke-miterlimit="50"/><path d="M124.817 281.9l-29.4-29.4-88.21 88.2 58.81-.01zM124.607 400.08l-29.4-29.4 88.2-88.18 29.42.12-.02 29.28z" fill-opacity="0" fill="#fff" stroke-dasharray="0" stroke="#52b4ff" stroke-miterlimit="50"/><path d="M95.417 370.49l29.4-29.4L7.207 223.5l.01 58.81zM497.607 152.5l-29.4 29.4 117.61 117.59-.01-58.81zM556.607 270.5l-29.4 29.4 117.61 117.59-.01-58.81z" fill-opacity="0" fill="#fff" stroke-dasharray="0" stroke="#52b4ff" stroke-miterlimit="50"/><path d="M556.817 211.9l-29.4-29.4-88.21 88.2 58.81-.01zM497.607 211.1l-29.4-29.4 88.21-88.2-.01 58.81zM395.207 208.17c0-2.03 1.65-3.67 3.68-3.67 2.03 0 3.67 1.64 3.67 3.67 0 2.03-1.64 3.68-3.67 3.68-2.03 0-3.68-1.65-3.68-3.68zM30.207 88.3l29.4 29.4 88.21-88.2-58.82.01z" fill-opacity="0" fill="#fff" stroke-dasharray="0" stroke="#52b4ff" stroke-miterlimit="50"/><path d="M60.007 59.3L1.207.5l58.81.01 58.8 58.79z" fill-opacity="0" fill="#fff" stroke-dasharray="0" stroke="#52b4ff" stroke-miterlimit="50"/><path d="M260.207 336.17c0-2.03 1.65-3.67 3.68-3.67 2.03 0 3.67 1.64 3.67 3.67 0 2.03-1.64 3.68-3.67 3.68-2.03 0-3.68-1.65-3.68-3.68" fill="#52b4ff"/></svg>