<svg xmlns="http://www.w3.org/2000/svg" width="490.562" height="252.914" viewBox="0 0 490.56150403424493 252.91416959999373"><title>Page 1</title><path d="M214.527 251.787l-23.71-23.71 71.14-71.12-.01 47.42zM214.397 61.667l23.71-23.71 94.85 94.82-47.44-.01z" fill-opacity="0" fill="#fff" stroke-dasharray="0" stroke="#d7e3ef" stroke-miterlimit="50"/><path d="M261.957 61.667l-23.71-23.71-71.15 71.12 47.44-.01zM71.817 108.957l-23.71 23.71 94.85 94.82-.01-47.42z" fill-opacity="0" fill="#fff" stroke-dasharray="0" stroke="#d7e3ef" stroke-miterlimit="50"/><path d="M190.247 227.487l23.71-23.71-94.85-94.82.01 47.42zM143.527 84.957l-23.71 23.71 71.14 71.12-.01-47.42zM261.807 156.767l-23.71-23.7 71.13-71.11 23.73.1-.02 23.61zM238.247 132.487l23.71-23.71-94.85-94.82.01 47.42zM95.957 180.667l-23.71-23.71-71.15 71.12 47.44-.01zM71.527 156.787l-23.71-23.71 71.14-71.12-.01 47.42z" fill-opacity="0" fill="#fff" stroke-dasharray="0" stroke="#d7e3ef" stroke-miterlimit="50"/><path d="M69.027 108.917a2.966 2.966 0 0 1 5.93 0 2.96 2.96 0 0 1-2.96 2.96c-1.64 0-2.97-1.32-2.97-2.96M164.027 37.917a2.966 2.966 0 0 1 5.93 0 2.96 2.96 0 0 1-2.96 2.96c-1.64 0-2.97-1.32-2.97-2.96" fill="#d8e3f0"/><path d="M395.817 120.487l-23.71-23.71 94.85-94.82-.01 47.42z" fill-opacity="0" fill="#fff" stroke-dasharray="0" stroke="#d7e3ef" stroke-miterlimit="50"/><path d="M395.527 72.957l-23.71 23.71 71.14 71.12-.01-47.42zM489.957 73.087l-23.71 23.7-71.13-71.11.1-23.72 23.61.02z" fill-opacity="0" fill="#fff" stroke-dasharray="0" stroke="#d7e3ef" stroke-miterlimit="50"/><path d="M466.957 96.667l-23.71-23.71-94.85 94.82 47.43-.01z" fill-opacity="0" fill="#fff" stroke-dasharray="0" stroke="#d7e3ef" stroke-miterlimit="50"/></svg>