<svg data-name="Layer 1" xmlns="http://www.w3.org/2000/svg" viewBox="0 0 290.23 317.37"><title>pattern_popup</title><path fill="none" stroke="#d6e2ef" stroke-miterlimit="10" d="M241.44 243.47l-24.03-24.22 72.08-72.69-.01 48.46-48.04 48.45zM289.49 49.67l-24.02-24.23-72.08 72.69 48.06-.01 48.04-48.45zM97.31 98.11l-24.02 24.23 96.1 96.91-.01-48.46-72.07-72.68z"/><path fill="none" stroke="#d6e2ef" stroke-miterlimit="10" d="M217.43 219.26l24.03-24.23-96.1-96.91.01 48.46 72.06 72.68z"/><path fill="none" stroke="#d6e2ef" stroke-miterlimit="10" d="M217.43 170.8l24.03 24.23-72.08 72.69.01-48.47 48.04-48.45zM169.38 73.88l-24.03 24.23 72.08 72.69-.01-48.47-48.04-48.45z"/><path fill="none" stroke="#d6e2ef" stroke-miterlimit="10" d="M145.36 195.02l-24.02 24.23 96.1 96.91-.01-48.47-72.07-72.67zM121.32 219.26L97.3 195.03 1.2 291.94l48.06-.01 72.06-72.67z"/><path fill="none" stroke="#d6e2ef" stroke-miterlimit="10" d="M73.27 219.26l24.03-24.23 72.08 72.69-48.06-.01-48.05-48.45zM265.5 122.35l24.02-24.22-96.09-96.91.01 48.46 72.06 72.67z"/><path fill="none" stroke="#d6e2ef" stroke-miterlimit="10" d="M121.32 170.81L97.3 146.58l-72.09 72.68 48.07-.01 48.04-48.44zM97.31 146.57l-24.02-24.23 72.08-72.69-.01 48.47-48.05 48.45z"/></svg>