<?xml version="1.0" encoding="utf-8"?><svg xmlns="http://www.w3.org/2000/svg" xmlns:xlink="http://www.w3.org/1999/xlink"><symbol viewBox="-1 -1 56.92 32.97" id="home-modal"><title>plan-pro</title><path fill="#e7f9ff" d="M2.52 4.86v25.78h5.52V12.22h9.21v18.42h11.89l8.75-25.78H2.52z"/><path fill="none" stroke="#38a8f6" stroke-miterlimit="10" stroke-width="1.5" d="M2.59 4.43h49.73v25.79H2.59zM.75.75h53.42v3.68H.75z"/><path fill="none" stroke="#38a8f6" stroke-miterlimit="10" stroke-width="1.5" d="M24.7 11.8h22.1v11.05H24.7z"/><path fill="none" stroke="#38a8f6" stroke-miterlimit="10" stroke-width="1.5" d="M24.7 11.8h11.05v11.05H24.7zM8.12 11.8h9.21v18.42H8.12zM8.12 8.12h9.21"/></symbol><symbol viewBox="-1 -1 61.7 50.1" id="plan-business"><title>plan-pro-new</title><path fill="#e9f3d3" d="M6.55 30.75h8.3v16.6h-8.3zM39.55 47.35h-8.9V4.05h23.6l-14.7 43.3z"/><path fill="none" stroke="#91cd00" stroke-miterlimit="10" stroke-width="1.5" d="M30.65 4.05h26.6v43.3h-26.6zM28.95.75h30v3.3h-30zM18.15 30.75h7.9v10h-7.9zM6.55 30.75h8.3v16.6h-8.3z"/><path fill="none" stroke="#91cd00" stroke-miterlimit="10" stroke-width="1.5" d="M2.35 24.05h28.3v23.3H2.35zM.75 20.75h30v3.3h-30zM30.65 10.75h21.6M30.65 15.75h20M30.65 20.75h18.3M47.25 25.75h-16.6M45.65 30.75h-15M43.95 35.75h-13.3M42.25 40.65h-11.6"/></symbol><symbol viewBox="-1 -1 58.54 46.05" id="plan-business-small"><title>plan-business-small</title><path fill="#e9f3d3" d="M6.25 27.58h7.86v15.73H6.25zM37.45 43.3h-8.39V3.9h22.28L37.45 43.3z"/><path fill="none" stroke="#94ce09" stroke-miterlimit="10" stroke-width="1.5" d="M29.06 3.9h25.16v39.41H29.06zM27.49.75H55.8V3.9H27.49zM17.26 27.58h7.47v9.44h-7.47zM6.25 27.58h7.86v15.73H6.25z"/><path fill="none" stroke="#94ce09" stroke-miterlimit="10" stroke-width="1.5" d="M2.32 21.29h26.74v22.02H2.32zM.75 18.14h28.31v3.15H.75zM29.06 8.71H49.5M29.06 13.42h18.87M29.06 18.14h17.3M44.78 22.86H29.06M43.21 27.58H29.06M41.64 32.3H29.06M40.07 37.01H29.06"/></symbol><symbol viewBox="-1 -1 52.1 76.5" id="plan-enterprise"><title>plan-enterprise</title><path fill="#e7f3ff" d="M17.55 28.75h18.7v16.8h-18.7z"/><path fill="#e7f3ff" d="M17.55.75h15v28.1h-15zM13.85 45.65v28.1h14.9l9.4-28.1h-24.3z"/><path fill="none" stroke="#338fec" stroke-miterlimit="10" stroke-width="1.5" d="M17.55 28.75h18.7v16.8h-18.7z"/><path fill="none" stroke="#338fec" stroke-miterlimit="10" stroke-width="1.5" d="M17.55 28.85V.75h15v27.6M13.85 45.65h26.2v28.1h-26.2zM36.25 51.25h-22.4M34.35 56.85h-20.5M32.55 62.45h-18.7M30.65 68.05h-16.8M17.55 40.05h18.7M36.25 34.35h-18.7M17.55 11.95h15M17.55 6.35h15M32.55 17.55h-15M17.55 23.15h15"/><path fill="none" stroke="#338fec" stroke-miterlimit="10" stroke-width="1.5" d="M32.55 15.65h16.8v58.1h-9.3M13.85 73.75H.75v-41.2h16.8"/><path fill="#fff" stroke="#338fec" stroke-miterlimit="10" stroke-width="1.5" d="M.75 28.75h16.8v3.7H.75zM32.55 11.95h16.8v3.7h-16.8z"/></symbol><symbol viewBox="-1 -1 44.39 60.12" id="plan-enterprise-small"><title>plan-enterprise-small</title><path fill="#e7f3ff" d="M11.76 33.78v23.59h12.58l7.86-23.59H11.76z"/><path fill="#e7f3ff" stroke="#338fec" stroke-miterlimit="10" stroke-width="1.5" d="M14.9 19.62h15.73v14.15H14.9zM14.9 5.47h12.58v14.15H14.9z"/><path fill="#e7f3ff" stroke="#338fec" stroke-miterlimit="10" stroke-width="1.5" d="M14.9.75h12.58V14.9H14.9z"/><path fill="none" stroke="#338fec" stroke-miterlimit="10" stroke-width="1.5" d="M11.76 33.78h22.02v23.59H11.76zM30.63 38.49H11.76M29.06 43.21h-17.3M27.49 47.93H11.76M25.91 52.65H11.76"/><path fill="#e7f3ff" stroke="#338fec" stroke-miterlimit="10" stroke-width="1.5" d="M14.9 24.34h15.73v4.72H14.9zM14.9 14.9h12.58v-4.71H14.9V5.47h12.58"/><path fill="none" stroke="#338fec" stroke-miterlimit="10" stroke-width="1.5" d="M27.48 11.76h14.16v45.61h-7.86M11.76 57.37H.75v-34.6H14.9"/><path fill="#fff" stroke="#338fec" stroke-miterlimit="10" stroke-width="1.5" d="M.75 19.62H14.9v3.15H.75z"/></symbol><symbol viewBox="-1 -1 48.73 41.96" id="plan-free"><title>plan-free</title><path fill="#e4e7ed" d="M21.28 8.11v8.94h19.31V8.11l-1.13-1.14H22.42l-1.14 1.14z"/><path fill="none" stroke="#abbdc9" stroke-miterlimit="10" stroke-width="1.5" d="M.75 24.01h45.23v3.57H.75zM12.38 27.4v12.35M5.92 39.75L9.5 27.4M34.35 27.4v12.35M40.81 39.75L37.24 27.4M21.28 8.11v10.22l1.14 1.14h17.04l1.13-1.14V8.11l-1.13-1.14H22.42l-1.14 1.14zM33.78 19.47l1.13 4.54M26.96 24.01l1.14-4.54M7.63 24.01v-2.58h2.58l1.29 2.58M8.92 21.43L3.75 11.09l5.17-7.76M10.21 4.63l2.59-2.59L11.5.75h-1.29L8.92 2.04v1.29l1.29 1.3zM10.21 4.63l2.59-2.59h2.58l1.29 1.29L11.5 8.5l-1.29-1.29V4.63z"/></symbol><symbol viewBox="-1 -1 86.72 67.69" id="plan-marketers"><title>marketers-popup</title><path fill="#c9f2f4" d="M69.96 18.41l-19.58-.01v7.16h22.84v-3.71l-3.26-3.44z"/><path fill="none" stroke="#00c1d4" stroke-miterlimit="10" stroke-width="1.5" d="M50.38 25.56h22.84"/><path fill="none" d="M65.34 21.62h5.52"/><path fill="none" stroke="#00c1d4" stroke-miterlimit="10" stroke-width="1.5" d="M9.26 61.09l-.01-15.83M50.38 18.39l19.59.01 3.25 3.45V61.2"/><path fill="none" d="M.75 61v1.4l4.45 2.54h72.44l4.25-2.54V61H.75z"/><path fill="#c9f2f4" d="M.75 61v1.4l4.18 2.54h72.43l4.53-2.54V61H.75z"/><path fill="none" stroke="#00c1d4" stroke-miterlimit="10" stroke-width="1.5" d="M63.36 21.72h5.51M39.44 61v-8.58H14.47V61M42.98 45.26v12.53h25.51V31.86H50.38M50.38 35.33h14.65"/><path fill="none" stroke="#00c1d4" stroke-miterlimit="10" stroke-width="1.5" d="M.75 9.8h44.39l5.24 5.63v29.83H.75V9.8z"/><path fill="none" stroke="#00c1d4" stroke-miterlimit="10" stroke-width="1.5" d="M50.38 15.46H44.9V9.74"/><path fill="none" d="M45.65 42.11h2.36v-1.58"/><path d="M25.51 40.81h-.9l.05-.82a12.59 12.59 0 0 0 4.51-.52l.24.79a13.27 13.27 0 0 1-3.9.55zm-5.08-1a13.31 13.31 0 0 1-3.38-2l.52-.63a12.48 12.48 0 0 0 3.18 1.91zm12.82-1.49l-.48-.67a12.55 12.55 0 0 0 2.66-2.58l.65.5a13.37 13.37 0 0 1-2.82 2.76zm-19-3.77a13.24 13.24 0 0 1-1.57-3.62l.8-.21a12.4 12.4 0 0 0 1.47 3.4zm23.86-2.74l-.78-.26a12.47 12.47 0 0 0 .65-3.65h.82a13.27 13.27 0 0 1-.69 3.91zm-25-5.08l-.82-.05a13.25 13.25 0 0 1 .83-3.86l.77.29a12.41 12.41 0 0 0-.83 3.61zm24.39-2.82a12.42 12.42 0 0 0-1.59-3.35l.68-.46a13.24 13.24 0 0 1 1.69 3.57zm-21.61-4.28l-.64-.52a13.35 13.35 0 0 1 2.92-2.66l.46.69a12.53 12.53 0 0 0-2.78 2.47zm17.27-2a12.47 12.47 0 0 0-3.24-1.8l.29-.77a13.26 13.26 0 0 1 3.45 1.92zM22.3 15.47l-.21-.79a13.16 13.16 0 0 1 3.51-.46h.41v.82h-.5a12.5 12.5 0 0 0-3.26.42z" fill="#3b7ed5" stroke="#00c1d4" stroke-miterlimit="10" stroke-width=".5"/><path fill="none" stroke="#00c1d4" stroke-miterlimit="10" stroke-width="1.5" d="M78.53 4.94V1M78.53 12.34V8.4M80.25 6.67h3.94M72.86 6.67h3.94M80.75 22.16l-1.69-1.69M84.19 25.6l-1.69-1.69M82.5 22.16l1.69-1.69M79.06 25.6l1.69-1.69M65.34 13.52l3.1-3.1M59.795 3.914l2.877-2.879 2.879 2.877-2.877 2.879z"/><path fill="#c9f2f4" d="M24.08 28.04l4.74-4.84h4.55l-9.2 9.36-6.38-6.21h4.54l4.11 3.98"/><path fill="none" stroke="#00c1d4" stroke-miterlimit="10" stroke-width="1.5" d="M24.08 28.04l4.74-4.84h4.55l-9.2 9.36-6.38-6.21h4.54l4.11 3.98M.75 61v1.4l4.45 2.54h72.44l4.25-2.54V61H.75z"/></symbol><symbol viewBox="-1 -1 56.92 32.97" id="plan-pro"><title>plan-pro</title><path fill="#e7f9ff" d="M2.52 4.86v25.78h5.52V12.22h9.21v18.42h11.89l8.75-25.78H2.52z"/><path fill="none" stroke="#38a8f6" stroke-miterlimit="10" stroke-width="1.5" d="M2.59 4.43h49.73v25.79H2.59zM.75.75h53.42v3.68H.75z"/><path fill="none" stroke="#38a8f6" stroke-miterlimit="10" stroke-width="1.5" d="M24.7 11.8h22.1v11.05H24.7z"/><path fill="none" stroke="#38a8f6" stroke-miterlimit="10" stroke-width="1.5" d="M24.7 11.8h11.05v11.05H24.7zM8.12 11.8h9.21v18.42H8.12zM8.12 8.12h9.21"/></symbol><symbol viewBox="-1 -1 56.92 32.97" id="plan-pro-price"><title>plan-pro</title><path fill="#e7f9ff" d="M2.52 4.86v25.78h5.52V12.22h9.21v18.42h11.89l8.75-25.78H2.52z"/><path fill="none" stroke="#38a8f6" stroke-miterlimit="10" stroke-width="1.5" d="M2.59 4.43h49.73v25.79H2.59zM.75.75h53.42v3.68H.75z"/><path fill="none" stroke="#38a8f6" stroke-miterlimit="10" stroke-width="1.5" d="M24.7 11.8h22.1v11.05H24.7z"/><path fill="none" stroke="#38a8f6" stroke-miterlimit="10" stroke-width="1.5" d="M24.7 11.8h11.05v11.05H24.7zM8.12 11.8h9.21v18.42H8.12zM8.12 8.12h9.21"/></symbol><symbol viewBox="-1 -1 49.11 28.66" id="plan-pro-small"><title>plan-pro-small</title><path fill="#e6f9ff" d="M24.98 25.91H2.32V3.9h30.15l-7.49 22.01z"/><path fill="#fff" d="M7.04 10.19h7.86v15.73H7.04z"/><path fill="none" stroke="#37a7f6" stroke-miterlimit="10" stroke-width="1.5" d="M2.32 3.9h42.46v22.02H2.32zM.75.75h45.61V3.9H.75z"/><path fill="none" stroke="#37a7f6" stroke-miterlimit="10" stroke-width="1.5" d="M21.19 10.19h18.87v9.44H21.19zM30.63 10.19v9.43M7.04 10.19h7.86v15.73H7.04zM7.04 7.04h7.86"/></symbol></svg>