<svg id="Layer_4" data-name="Layer 4" xmlns="http://www.w3.org/2000/svg" viewBox="0 0 163.08 116"><title>icon-teams-mc</title><rect width="162" height="116" fill="none" opacity="0.4"/><rect x="25.41" y="1" width="108.33" height="16.66" fill="#e7f1fa"/><rect x="25.41" y="1" width="108.33" height="109.33" fill="none" stroke="#3b7ed5" stroke-miterlimit="10" stroke-width="1.5"/><rect x="119.91" y="99.5" width="23.12" height="14.68" fill="#fff"/><polygon points="35.76 61 35.73 46.68 45.71 56.66 49.26 53.1 55.66 46.7 60.64 51.68 70.59 41.73 80.54 51.68 90.19 42.03 90.49 61.25 35.76 61" fill="#e7f1fa"/><line x1="111.23" y1="9.63" x2="126.71" y2="9.63" fill="none" stroke="#3b7ed5" stroke-miterlimit="10" stroke-width="1.5"/><line x1="35.93" y1="9.63" x2="41.41" y2="9.63" fill="none" stroke="#3b7ed5" stroke-miterlimit="10" stroke-width="1.5"/><rect x="35.7" y="26.59" width="54.81" height="35.08" fill="none" stroke="#3b7ed5" stroke-miterlimit="10" stroke-width="1.5"/><polyline points="40.74 61.63 55.66 46.7 60.64 51.68 70.59 41.73 80.54 51.68 85.51 56.66" fill="none" stroke="#3b7ed5" stroke-miterlimit="10" stroke-width="1.5"/><line x1="90.49" y1="41.73" x2="80.54" y2="51.68" fill="none" stroke="#3b7ed5" stroke-miterlimit="10" stroke-width="1.5"/><line x1="35.76" y1="46.71" x2="45.71" y2="56.66" fill="none" stroke="#3b7ed5" stroke-miterlimit="10" stroke-width="1.5"/><rect x="212.87" y="364.95" width="7.04" height="7.04" transform="translate(-367.85 -68.81) rotate(-45)" fill="#e7f1fa" stroke="#3b7ed5" stroke-miterlimit="10" stroke-width="1.5"/><polyline points="120.87 103.15 111.08 93.35 111.08 73.75 124.14 60.34 143.74 60.34 156.08 73.75 156.08 93.35 146.64 103.15" fill="#fff"/><rect x="127.53" y="111" width="13" height="4" fill="none" stroke="#3b7ed5" stroke-miterlimit="10" stroke-width="1.5"/><polyline points="124.83 96.49 118.08 89.74 118.08 76.24 127.08 67 140.58 67 149.08 76.24 149.08 89.74 142.58 96.49" fill="none" stroke="#3b7ed5" stroke-miterlimit="10" stroke-width="1.5"/><polyline points="131.08 96 131.08 87.49 127.08 83 140.58 83 136.08 87.49 136.08 96" fill="#dce8a3"/><polyline points="124.83 96.49 118.08 89.74 118.08 76.24 127.08 67 140.58 67 149.08 76.24 149.08 89.74 142.58 96.49" fill="#fff" stroke="#3b7ed5" stroke-miterlimit="10" stroke-width="1.5"/><polyline points="131.28 96 131.28 87.49 127.28 81 140.78 81 136.28 87.49 136.28 96" fill="#e7f1fa" stroke="#3b7ed5" stroke-miterlimit="10" stroke-width="1.5"/><rect x="125.03" y="96" width="18" height="5" fill="none" stroke="#3b7ed5" stroke-miterlimit="10" stroke-width="1.5"/><rect x="125.03" y="101" width="18" height="5" fill="none" stroke="#3b7ed5" stroke-miterlimit="10" stroke-width="1.5"/><rect x="125.03" y="106" width="18" height="5" fill="none" stroke="#3b7ed5" stroke-miterlimit="10" stroke-width="1.5"/><path d="M272.74,395.71" transform="translate(-170.68 -329.74)" fill="none" stroke="#3b7ed5" stroke-miterlimit="10" stroke-width="1.5"/><line x1="149.58" y1="64.79" x2="156.06" y2="58.3" fill="none" stroke="#3b7ed5" stroke-miterlimit="10" stroke-width="1.5"/><line x1="154.08" y1="83" x2="163.08" y2="83" fill="none" stroke="#3b7ed5" stroke-miterlimit="10" stroke-width="1.5"/><line x1="118.08" y1="64.9" x2="111.59" y2="58.42" fill="none" stroke="#3b7ed5" stroke-miterlimit="10" stroke-width="1.5"/><line x1="113.08" y1="83" x2="104.08" y2="83" fill="none" stroke="#3b7ed5" stroke-miterlimit="10" stroke-width="1.5"/><line x1="36.08" y1="72.75" x2="60.14" y2="72.75" fill="none" stroke="#3b7ed5" stroke-miterlimit="10" stroke-width="1.5"/><line x1="36.08" y1="78" x2="60.14" y2="78" fill="none" stroke="#3b7ed5" stroke-miterlimit="10" stroke-width="1.5"/><line x1="36.08" y1="83.25" x2="60.14" y2="83.25" fill="none" stroke="#3b7ed5" stroke-miterlimit="10" stroke-width="1.5"/><line x1="67.01" y1="72.75" x2="91.08" y2="72.75" fill="none" stroke="#3b7ed5" stroke-miterlimit="10" stroke-width="1.5"/><line x1="67.01" y1="78" x2="91.08" y2="78" fill="none" stroke="#3b7ed5" stroke-miterlimit="10" stroke-width="1.5"/><line x1="67.01" y1="83.25" x2="91.08" y2="83.25" fill="none" stroke="#3b7ed5" stroke-miterlimit="10" stroke-width="1.5"/><line x1="66.34" y1="95.58" x2="97.34" y2="95.58" fill="none" stroke="#3b7ed5" stroke-miterlimit="10" stroke-width="1.5"/><line x1="66.34" y1="100.83" x2="92.34" y2="100.83" fill="none" stroke="#3b7ed5" stroke-miterlimit="10" stroke-width="1.5"/><rect x="37.08" y="94.58" width="17.47" height="6.17" fill="#e7f1fa" stroke="#3b7ed5" stroke-miterlimit="10" stroke-width="1.5"/><rect x="130.91" y="44.13" width="5.25" height="7.04" fill="#fff"/><rect x="101.34" y="30.93" width="5.26" height="14.15" fill="none" stroke="#3b7ed5" stroke-miterlimit="10" stroke-width="1.5"/><polyline points="106.6 43.58 118.03 43.58 121.12 32.37 114.31 32.37 116.83 26.59 113.17 26.59 109.19 32.52 106.6 32.52" fill="none" stroke="#3b7ed5" stroke-miterlimit="10" stroke-width="1.5"/></svg>