<svg id="Layer_4" data-name="Layer 4" xmlns="http://www.w3.org/2000/svg" viewBox="0 0 162 116"><title>icon-teams-pm</title><rect x="5" width="150" height="116" fill="none" opacity="0.4"/><rect x="19" y="76.17" width="87" height="10" fill="#e7f1fa"/><polyline points="83.11 42.45 74.83 34.17 68 34.17" fill="none" stroke="#3b7ed5" stroke-miterlimit="10" stroke-width="1.5"/><rect x="16" y="3.17" width="114" height="7" fill="#e7f1fa" stroke="#3b7ed5" stroke-miterlimit="10" stroke-width="1.5"/><polyline points="27.33 69.53 38.31 58.55 43.54 63.77 57.47 49.84 67.64 60.02 85.32 42.34 91.61 48.64 114.66 25.17" fill="none" stroke="#3b7ed5" stroke-miterlimit="10" stroke-width="1.5"/><polyline points="110 25.17 115 25.17 115 29.17" fill="none" stroke="#3b7ed5" stroke-miterlimit="10" stroke-width="1.5"/><polyline points="34.67 57 28.83 51.17 22 51.17" fill="none" stroke="#3b7ed5" stroke-miterlimit="10" stroke-width="1.5"/><polyline points="55.67 48 49.83 42.17 43 42.17" fill="none" stroke="#3b7ed5" stroke-miterlimit="10" stroke-width="1.5"/><line x1="22" y1="48.17" x2="29" y2="48.17" fill="none" stroke="#3b7ed5" stroke-miterlimit="10" stroke-width="1.5"/><line x1="44" y1="39.17" x2="49" y2="39.17" fill="none" stroke="#3b7ed5" stroke-miterlimit="10" stroke-width="1.5"/><line x1="69" y1="31.17" x2="74" y2="31.17" fill="none" stroke="#3b7ed5" stroke-miterlimit="10" stroke-width="1.5"/><line x1="76" y1="31.17" x2="78" y2="31.17" fill="none" stroke="#3b7ed5" stroke-miterlimit="10" stroke-width="1.5"/><line x1="47.11" y1="92.16" x2="92.16" y2="92.16" fill="#fff" stroke="#3b7ed5" stroke-miterlimit="10" stroke-width="1.5"/><line x1="91.29" y1="86.67" x2="95.69" y2="115.3" fill="none" stroke="#3b7ed5" stroke-miterlimit="10" stroke-width="1.5"/><line x1="44.31" y1="115.43" x2="48.71" y2="86.67" fill="none" stroke="#3b7ed5" stroke-miterlimit="10" stroke-width="1.5"/><circle cx="37.25" cy="58.79" r="2.58" fill="#e7f1fa" stroke="#3b7ed5" stroke-miterlimit="10" stroke-width="1.5"/><circle cx="57.08" cy="49.75" r="2.58" fill="#e7f1fa" stroke="#3b7ed5" stroke-miterlimit="10" stroke-width="1.5"/><circle cx="84.58" cy="42.97" r="2.58" fill="#e7f1fa" stroke="#3b7ed5" stroke-miterlimit="10" stroke-width="1.5"/><rect x="19" y="10.17" width="108" height="76" fill="none" stroke="#3b7ed5" stroke-miterlimit="10" stroke-width="1.5"/><rect x="106" y="54.17" width="38" height="50" fill="#fff" stroke="#3b7ed5" stroke-miterlimit="10" stroke-width="1.5"/><line x1="113" y1="70.17" x2="137" y2="70.17" fill="none" stroke="#3b7ed5" stroke-miterlimit="10" stroke-width="1.5"/><line x1="113" y1="76.17" x2="137" y2="76.17" fill="none" stroke="#3b7ed5" stroke-miterlimit="10" stroke-width="1.5"/><line x1="113" y1="82.17" x2="137" y2="82.17" fill="none" stroke="#3b7ed5" stroke-miterlimit="10" stroke-width="1.5"/><line x1="113" y1="88.17" x2="137" y2="88.17" fill="none" stroke="#3b7ed5" stroke-miterlimit="10" stroke-width="1.5"/><rect x="116" y="51.17" width="19" height="6" fill="#e7f1fa" stroke="#3b7ed5" stroke-miterlimit="10" stroke-width="1.5"/><rect x="119" y="46.17" width="12" height="5" fill="#e7f1fa" stroke="#3b7ed5" stroke-miterlimit="10" stroke-width="1.5"/><rect width="162" height="116" fill="none" opacity="0.4"/></svg>