<svg id="Layer_4" data-name="Layer 4" xmlns="http://www.w3.org/2000/svg" viewBox="0 0 162 116"><title>icon-teams-all-hover</title><rect x="6" width="150" height="116" fill="none" opacity="0.4"/><polygon points="43.07 49.95 32.03 49.95 24.51 42.78 16.86 49.95 16.86 39.08 21.23 34.71 38.7 34.71 43.07 39.08 43.07 49.95" fill="#c5e0ef" stroke="#2069db" stroke-miterlimit="10" stroke-width="1.5"/><polyline points="35.54 79.97 35.54 85.1 33.59 87.05 25.79 87.05 23.84 85.1 23.84 79.97" fill="#c5e0ef" stroke="#2069db" stroke-miterlimit="10" stroke-width="1.5"/><polyline points="89.94 85.5 89.94 92.99 87.1 95.83 75.73 95.83 72.89 92.99 72.89 85.5" fill="#c5e0ef" stroke="#2069db" stroke-miterlimit="10" stroke-width="1.5"/><polygon points="57.99 65.02 57.99 32.01 64.96 25.04 97.87 25.04 104.84 32.01 104.84 65.02 57.99 65.02" fill="#c5e0ef" stroke="#2069db" stroke-miterlimit="10" stroke-width="1.5"/><rect x="115.16" y="52.18" width="4.37" height="4.37" fill="none" stroke="#2069db" stroke-miterlimit="10" stroke-width="1.5"/><polygon points="145.74 69.66 141.37 74.03 123.9 74.03 119.53 69.66 119.53 39.08 123.9 34.71 141.37 34.71 145.74 39.08 145.74 69.66" fill="none" stroke="#2069db" stroke-miterlimit="10" stroke-width="1.5"/><polygon points="145.74 46.73 119.53 46.73 119.53 39.08 123.9 34.71 141.37 34.71 145.74 39.08 145.74 46.73" fill="#c5e0ef" stroke="#2069db" stroke-miterlimit="10" stroke-width="1.5"/><rect x="145.74" y="52.18" width="4.37" height="4.37" fill="none" stroke="#2069db" stroke-miterlimit="10" stroke-width="1.5"/><polygon points="99.11 45.13 99.11 72.38 93.19 78.3 69.52 78.3 63.61 72.38 63.61 45.13 69.65 45.18 77.7 36.82 77.7 45.18 99.11 45.13" fill="#fff" stroke="#2069db" stroke-miterlimit="10" stroke-width="1.5"/><polygon points="60.83 112.57 60.83 90.98 66.75 85.06 96.09 85.06 102 90.98 102 112.57 60.83 112.57" fill="none" stroke="#2069db" stroke-miterlimit="10" stroke-width="1.5"/><rect x="12.49" y="52.18" width="4.37" height="4.37" fill="none" stroke="#2069db" stroke-miterlimit="10" stroke-width="1.5"/><polygon points="43.07 69.66 38.7 74.03 21.23 74.03 16.86 69.66 16.86 39.08 21.23 34.71 38.7 34.71 43.07 39.08 43.07 69.66" fill="none" stroke="#2069db" stroke-miterlimit="10" stroke-width="1.5"/><polygon points="13.23 101.23 13.23 84.51 17.6 80.14 41.38 80.14 45.75 84.51 45.75 101.23 13.23 101.23" fill="none" stroke="#2069db" stroke-miterlimit="10" stroke-width="1.5"/><polygon points="116.38 100.55 116.38 83.83 120.75 79.46 144.52 79.46 148.89 83.83 148.89 100.55 116.38 100.55" fill="none" stroke="#2069db" stroke-miterlimit="10" stroke-width="1.5"/><rect x="43.07" y="52.18" width="4.37" height="4.37" fill="none" stroke="#2069db" stroke-miterlimit="10" stroke-width="1.5"/><line x1="21.4" y1="35.4" x2="36.2" y2="49.46" fill="none" stroke="#2069db" stroke-miterlimit="10" stroke-width="1.5"/><line x1="17.03" y1="40.07" x2="22.45" y2="45.49" fill="none" stroke="#2069db" stroke-miterlimit="10" stroke-width="1.5"/><line x1="19.12" y1="37.45" x2="24.54" y2="42.87" fill="none" stroke="#2069db" stroke-miterlimit="10" stroke-width="1.5"/><polygon points="137.31 92.52 132.63 97.19 127.96 92.52 132.63 85.17 137.31 92.52" fill="#c5e0ef" stroke="#2069db" stroke-miterlimit="10" stroke-width="1.5"/><polygon points="137.31 79.61 127.96 79.61 132.63 85.17 137.31 79.61" fill="none" stroke="#2069db" stroke-miterlimit="10" stroke-width="1.5"/><polygon points="26.22 8.04 32.94 8.04 37.98 13.08 37.98 19.8 32.94 24.84 26.22 24.84 21.18 19.8 21.18 13.08 26.22 8.04" fill="none" stroke="#2069db" stroke-miterlimit="10" stroke-width="1.5"/><polyline points="29.58 11.4 29.58 16.44 32.94 19.8" fill="none" stroke="#2069db" stroke-miterlimit="10" stroke-width="1.5"/><polygon points="137.25 19.49 138.77 24.06 134.21 22.53 125.07 13.4 128.12 10.35 137.25 19.49" fill="none" stroke="#2069db" stroke-miterlimit="10" stroke-width="1.5"/><polygon points="126.59 8.83 125.07 8.83 123.55 10.35 123.55 11.88 125.07 13.4 128.12 10.35 126.59 8.83" fill="none" stroke="#2069db" stroke-miterlimit="10" stroke-width="1.5"/><line x1="137.25" y1="19.49" x2="134.21" y2="22.53" fill="none" stroke="#2069db" stroke-miterlimit="10" stroke-width="1.5"/><polygon points="71.51 7.57 77.84 7.6 79.98 9.73 86.28 3.43 92.58 3.43 79.98 16.03 71.51 7.57" fill="none" stroke="#2069db" stroke-miterlimit="10" stroke-width="1.5"/><line x1="29.49" y1="87.6" x2="29.49" y2="101.23" fill="none" stroke="#2069db" stroke-miterlimit="10" stroke-width="1.5"/><rect width="162" height="116" fill="none" opacity="0.4"/></svg>