<svg id="Layer_1" data-name="Layer 1" xmlns="http://www.w3.org/2000/svg" xmlns:xlink="http://www.w3.org/1999/xlink" viewBox="0 0 150.06 118.2"><defs><clipPath id="clip-path" transform="translate(-505.32 -1346.42)"><polygon points="506.84 1357.9 590.44 1357.9 597.24 1365.43 597.24 1422.51 506.84 1422.51 506.84 1357.9" fill="none" clip-rule="evenodd"/></clipPath><clipPath id="clip-path-2" transform="translate(-505.32 -1346.42)"><rect x="228.47" y="1258.36" width="905.41" height="294.31" fill="none"/></clipPath></defs><title>icon-teams-ct</title><rect y="0.2" width="150" height="118" fill="#fff" opacity="0.4"/><polygon points="127.59 27.17 23.04 27.15 16.86 33.67 16.94 40.2 133.54 40.2 133.54 33.43 127.59 27.17" fill="#e7f1fa"/><line x1="17.31" y1="40.2" x2="133.53" y2="40.2" fill="none" stroke="#3b7ed5" stroke-miterlimit="10" stroke-width="1.5"/><line x1="119.18" y1="33.02" x2="129.23" y2="33.02" fill="none"/><polygon points="127.96 111.93 23.28 111.93 17.02 105.86 17 33.31 23.26 27.1 127.62 27.14 133.53 33.43 133.53 106.06 127.96 111.93" fill="none" stroke="#3b7ed5" stroke-miterlimit="10" stroke-width="1.5"/><polygon points="1.52 104.75 1.52 107.3 9.63 111.93 141.58 111.93 149.31 107.3 149.31 104.75 1.52 104.75" fill="none" fill-rule="evenodd"/><polygon points="1.52 104.75 1.52 107.3 9.13 111.93 141.08 111.93 149.31 107.3 149.31 104.75 1.52 104.75" fill="#e7f1fa"/><line x1="117.75" y1="33.02" x2="127.79" y2="33.02" fill="none" stroke="#3b7ed5" stroke-miterlimit="10" stroke-width="1.5"/><rect x="30.22" y="51.68" width="44.48" height="22.97" fill="none" stroke="#338fec" stroke-miterlimit="10" stroke-width="2"/><polyline points="72 104.75 72 89.11 26.52 89.11 26.52 104.75" fill="none" stroke="#3b7ed5" stroke-miterlimit="10" stroke-width="1.5"/><line x1="33.09" y1="55.99" x2="71.83" y2="55.99" fill="none" stroke="#338fec" stroke-miterlimit="10" stroke-width="2"/><rect x="78.44" y="51.68" width="46.48" height="47.23" fill="none" stroke="#3b7ed5" stroke-miterlimit="10" stroke-width="1.5"/><line x1="83.31" y1="57.99" x2="120.62" y2="57.99" fill="none" stroke="#3b7ed5" stroke-miterlimit="10" stroke-width="1.5"/><g clip-path="url(#clip-path)"><g clip-path="url(#clip-path-2)"><polygon points="1.52 11.48 85.12 11.48 91.92 19 91.92 76.09 1.52 76.09 1.52 11.48" fill="#fff"/></g></g><polygon points="1.52 11.48 85.12 11.48 91.92 19 91.92 76.09 1.52 76.09 1.52 11.48" fill="none" stroke="#3b7ed5" stroke-miterlimit="10" stroke-width="1.5"/><polyline points="91.92 18.86 84.75 18.86 84.75 11.38" fill="none" stroke="#3b7ed5" stroke-miterlimit="10" stroke-width="1.5" fill-rule="evenodd"/><polyline points="83.31 70.34 87.61 70.34 87.61 67.47" fill="none" fill-rule="evenodd"/><path d="M551.94,1414.41q-0.83,0-1.64-.05l0.1-1.5a22.93,22.93,0,0,0,8.22-.95l0.44,1.43A24.18,24.18,0,0,1,551.94,1414.41Zm-9.25-1.83a24.24,24.24,0,0,1-6.17-3.71l1-1.16a22.74,22.74,0,0,0,5.78,3.48Zm23.35-2.71-0.87-1.22a22.85,22.85,0,0,0,4.84-4.71l1.19,0.91A24.36,24.36,0,0,1,566.05,1409.87ZM531.39,1403a24.13,24.13,0,0,1-2.86-6.6L530,1396a22.6,22.6,0,0,0,2.68,6.19Zm43.5-5-1.42-.48a22.72,22.72,0,0,0,1.19-6.64l1.5,0A24.18,24.18,0,0,1,574.89,1398Zm-45.62-9.25-1.5-.09a24.13,24.13,0,0,1,1.51-7l1.4,0.53A22.61,22.61,0,0,0,529.26,1388.72Zm44.44-5.14a22.62,22.62,0,0,0-2.89-6.1l1.24-.84a24.11,24.11,0,0,1,3.08,6.5Zm-39.36-7.8-1.16-.95a24.32,24.32,0,0,1,5.33-4.84l0.83,1.25A22.83,22.83,0,0,0,534.34,1375.78Zm31.45-3.64a22.71,22.71,0,0,0-5.9-3.28l0.53-1.4a24.16,24.16,0,0,1,6.29,3.5ZM546,1368.21l-0.39-1.45a24,24,0,0,1,6.4-.84h0.75l0,1.5h-0.77A22.77,22.77,0,0,0,546,1368.21Z" transform="translate(-505.32 -1346.42)" fill="#3b7ed5"/><line x1="139.65" y1="7.17" x2="139.65" fill="none" stroke="#3b7ed5" stroke-miterlimit="10" stroke-width="1.5"/><line x1="139.65" y1="20.65" x2="139.65" y2="13.47" fill="none" stroke="#3b7ed5" stroke-miterlimit="10" stroke-width="1.5"/><line x1="142.8" y1="10.32" x2="149.97" y2="10.32" fill="none" stroke="#3b7ed5" stroke-miterlimit="10" stroke-width="1.5"/><line x1="129.33" y1="10.32" x2="136.5" y2="10.32" fill="none" stroke="#3b7ed5" stroke-miterlimit="10" stroke-width="1.5"/><line x1="142.5" y1="32.92" x2="139.55" y2="29.96" fill="none" stroke="#3b7ed5" stroke-miterlimit="10" stroke-width="1.5"/><line x1="148.49" y1="38.91" x2="145.54" y2="35.96" fill="none" stroke="#3b7ed5" stroke-miterlimit="10" stroke-width="1.5"/><line x1="145.54" y1="32.92" x2="148.49" y2="29.96" fill="none" stroke="#3b7ed5" stroke-miterlimit="10" stroke-width="1.5"/><line x1="139.55" y1="38.91" x2="142.5" y2="35.95" fill="none" stroke="#3b7ed5" stroke-miterlimit="10" stroke-width="1.5"/><line x1="119.18" y1="20.44" x2="124.82" y2="14.8" fill="none" stroke="#3b7ed5" stroke-miterlimit="10" stroke-width="1.5"/><rect x="618.62" y="1350.08" width="4.88" height="4.88" transform="translate(-1279.93 -510.75) rotate(-45.02)" fill="none" stroke="#3b7ed5" stroke-miterlimit="10" stroke-width="1.5"/><polyline points="44.02 44.7 52.66 35.89 60.93 35.89 44.18 52.95 32.56 41.63 40.84 41.63 48.32 48.88" fill="#e7f1fa" stroke="#3b7ed5" stroke-miterlimit="10" stroke-width="1.5"/><polygon points="1.52 104.75 1.52 107.3 9.63 111.93 141.58 111.93 149.31 107.3 149.31 104.75 1.52 104.75" fill="none" stroke="#3b7ed5" stroke-miterlimit="10" stroke-width="1.5"/><rect y="0.2" width="150" height="116" fill="none" opacity="0.4"/></svg>