<svg id="Layer_4" data-name="Layer 4" xmlns="http://www.w3.org/2000/svg" viewBox="0 0 162.39 116"><title>icon-teams-pd-hover</title><rect x="12.39" width="150" height="116" fill="none" opacity="0.4"/><rect x="29.39" y="28.77" width="30" height="10" fill="none" stroke="#2069db" stroke-miterlimit="10" stroke-width="1.5"/><rect x="29.39" y="44.77" width="30" height="10" fill="none" stroke="#2069db" stroke-miterlimit="10" stroke-width="1.5"/><rect x="29.39" y="60.77" width="30" height="10" fill="none" stroke="#2069db" stroke-miterlimit="10" stroke-width="1.5"/><polygon points="14.39 19.77 14.39 9.87 20.43 3.77 121.01 3.77 126.39 9.87 126.39 19.77 14.39 19.77" fill="#c5e0ef"/><polygon points="121.01 91.77 20.43 91.77 14.39 86.19 14.39 79.77 126.39 79.77 126.39 86.19 121.01 91.77" fill="#c5e0ef"/><rect x="136.39" y="83.77" width="24" height="8" fill="#c5e0ef"/><polyline points="148.39 91.77 148.39 103.77 105.39 103.77 105.39 114.44" fill="none" stroke="#2069db" stroke-miterlimit="10" stroke-width="1.5"/><polyline points="47.34 115.03 51.34 90.77 90.09 90.77 94.09 114.91" fill="none" stroke="#2069db" stroke-miterlimit="10" stroke-width="1.5"/><polygon points="121.01 90.77 20.43 90.77 14.39 85.54 14.39 10.79 20.43 4.77 121.01 4.77 126.39 10.79 126.39 85.54 121.01 90.77" fill="none" stroke="#2069db" stroke-miterlimit="10" stroke-width="1.5"/><circle cx="23.64" cy="12.17" r="2.25" fill="none" stroke="#2069db" stroke-miterlimit="10" stroke-width="1.5"/><circle cx="32.49" cy="12.17" r="2.25" fill="none" stroke="#2069db" stroke-miterlimit="10" stroke-width="1.5"/><circle cx="41.34" cy="12.17" r="2.25" fill="none" stroke="#2069db" stroke-miterlimit="10" stroke-width="1.5"/><circle cx="70.72" cy="85" r="2.42" fill="none" stroke="#2069db" stroke-miterlimit="10" stroke-width="1.5"/><rect x="69.39" y="28.77" width="42" height="42" fill="none" stroke="#2069db" stroke-miterlimit="10" stroke-width="1.5"/><polyline points="82.08 42.33 75.3 49.11 81.69 55.5" fill="none" stroke="#2069db" stroke-miterlimit="10" stroke-width="1.5"/><polyline points="98.86 55.5 105.64 48.72 99.25 42.33" fill="none" stroke="#2069db" stroke-miterlimit="10" stroke-width="1.5"/><line x1="94.39" y1="37.75" x2="85.14" y2="61.25" fill="none" stroke="#2069db" stroke-miterlimit="10" stroke-width="1.5"/><line x1="106.39" y1="11.77" x2="117.39" y2="11.77" fill="none" stroke="#2069db" stroke-miterlimit="10" stroke-width="1.5"/><rect x="136.39" y="52.77" width="24" height="39" fill="none" stroke="#2069db" stroke-miterlimit="10" stroke-width="1.5"/><circle cx="148.39" cy="87.79" r="1.59" fill="#3b7ed5"/><line x1="145.89" y1="56.77" x2="150.89" y2="56.77" fill="none" stroke="#2069db" stroke-miterlimit="10" stroke-width="1.5"/><line x1="142.39" y1="64.77" x2="154.39" y2="64.77" fill="none" stroke="#2069db" stroke-miterlimit="10" stroke-width="1.5"/><line x1="142.39" y1="68.77" x2="154.39" y2="68.77" fill="none" stroke="#2069db" stroke-miterlimit="10" stroke-width="1.5"/><line x1="125.39" y1="114.91" x2="15.39" y2="115.03" fill="none" stroke="#2069db" stroke-miterlimit="10" stroke-width="1.5"/><rect width="162" height="116" fill="none" opacity="0.4"/></svg>